# Blender 4.4.1
# www.blender.org
mtllib player.mtl
o Cube
v -0.208222 0.362440 0.095864
v -0.181466 -0.360088 -0.001143
v -0.144472 0.227023 -0.240593
v -0.044758 -0.331890 -0.226475
v 0.208222 0.362440 0.095864
v 0.181466 -0.360088 -0.001143
v 0.144472 0.227023 -0.240593
v 0.044758 -0.331890 -0.226475
v -0.166393 -0.146885 0.249320
v 0.142902 0.054216 -0.283220
v -0.142902 0.054216 -0.283220
v 0.166393 -0.146885 0.249320
v 0.195083 -0.337240 -0.188782
v -0.189836 0.224488 -0.096126
v 0.189836 0.224488 -0.096126
v -0.195083 -0.337240 -0.188782
v -0.249795 -0.118807 -0.069423
v 0.249795 -0.118807 -0.069423
v 0.000000 -0.362568 0.106574
v 0.000000 -0.301874 -0.271105
v 0.000000 0.288953 0.213157
v 0.000000 -0.256495 0.426152
v 0.000000 -0.076400 -0.509822
v -0.000000 -0.367681 -0.184417
v 0.000000 0.343040 -0.178259
v 0.202231 0.110352 -0.336041
v -0.311273 0.156933 0.156049
v -0.202231 0.110352 -0.336041
v 0.311273 0.156933 0.156049
v -0.299898 0.109913 -0.170241
v 0.299898 0.109913 -0.170241
v 0.000000 0.057332 0.518809
v 0.000000 0.200079 -0.486347
v -0.205930 -0.294020 0.109920
v -0.160508 -0.242114 -0.279245
v 0.205930 -0.294020 0.109920
v 0.160508 -0.242114 -0.279245
v 0.220115 -0.272493 -0.095170
v -0.220115 -0.272493 -0.095170
v 0.000000 -0.269168 -0.400158
v 0.000000 -0.362013 0.340150
v 0.000000 0.450149 -0.522239
v -0.002455 0.327761 -0.377276
v 0.002455 0.327761 -0.377276
v 0.000000 0.354977 -0.361279
v 0.000000 0.300111 -0.464338
vn -0.6066 0.7921 -0.0683
vn 0.6146 0.6590 -0.4336
vn 0.6724 0.7290 -0.1285
vn -0.0000 -0.9475 -0.3197
vn -0.0930 -0.8050 -0.5860
vn -0.0000 -0.7965 -0.6046
vn -0.6602 0.6436 -0.3872
vn -0.4095 0.7271 0.5510
vn -0.7488 -0.3386 0.5698
vn -0.9374 -0.1267 -0.3244
vn 0.9793 -0.1970 0.0471
vn 0.5939 -0.3978 -0.6993
vn 0.9374 -0.1267 -0.3244
vn -0.9793 -0.1970 0.0471
vn -0.6724 0.7290 -0.1285
vn -0.0744 -0.9967 -0.0324
vn -0.0000 -0.9998 0.0176
vn 0.6602 0.6436 -0.3872
vn -0.2629 0.9557 0.1321
vn -0.6038 0.6188 -0.5025
vn 0.0744 -0.9967 -0.0324
vn 0.1468 -0.9694 -0.1970
vn -0.5939 -0.3978 -0.6993
vn 0.7488 -0.3386 0.5698
vn 0.4095 0.7271 0.5510
vn 0.0930 -0.8050 -0.5860
vn -0.6146 0.6590 -0.4336
vn -0.5730 0.8026 -0.1658
vn -0.8325 0.0469 -0.5520
vn 0.7697 -0.1808 0.6122
vn 0.6232 -0.4257 -0.6561
vn -0.9064 -0.3694 0.2046
vn -0.7697 -0.1808 0.6122
vn -0.6232 -0.4257 -0.6561
vn 0.9064 -0.3694 0.2046
vn 0.8325 0.0469 -0.5520
vn 0.2762 -0.8515 0.4457
vn -0.2224 -0.6910 -0.6878
vn -0.9225 -0.3855 0.0200
vn 0.1635 -0.6480 -0.7439
vn 0.2224 -0.6910 -0.6878
vn 0.9225 -0.3855 0.0200
vn -0.1635 -0.6480 -0.7439
vn -0.2762 -0.8515 0.4457
vn 0.5730 0.8026 -0.1658
vn 0.7549 0.4343 -0.4914
vn 0.8788 0.3437 -0.3311
vn -0.1468 -0.9694 -0.1970
vn -0.6441 0.7412 -0.1892
vn -0.3313 0.4144 0.8477
vn -0.7784 -0.3966 0.4866
vn -0.9085 0.0484 -0.4151
vn 0.9669 0.0186 0.2546
vn 0.8340 0.0422 -0.5502
vn 0.9085 0.0484 -0.4151
vn -0.9669 0.0186 0.2546
vn -0.8788 0.3437 -0.3311
vn 0.6441 0.7412 -0.1892
vn 0.6038 0.6188 -0.5025
vn 0.2629 0.9557 0.1321
vn -0.8340 0.0422 -0.5502
vn 0.7784 -0.3966 0.4866
vn 0.3313 0.4144 0.8477
vn -0.9995 -0.0067 0.0303
vn 0.9962 -0.0865 -0.0056
vn -0.1422 -0.7539 -0.6414
vn 0.7704 -0.1796 0.6118
vn 0.5025 -0.8116 -0.2981
vn -0.9766 -0.2153 -0.0030
vn -0.7704 -0.1796 0.6118
vn -0.5025 -0.8116 -0.2981
vn 0.9766 -0.2153 -0.0030
vn 0.1422 -0.7539 -0.6414
vn 0.3158 -0.9488 0.0023
vn -0.3290 -0.9154 -0.2320
vn -0.9238 -0.3821 0.0238
vn 0.9525 0.0627 -0.2981
vn 0.3290 -0.9154 -0.2320
vn 0.9238 -0.3821 0.0238
vn -0.9525 0.0627 -0.2981
vn -0.3158 -0.9488 0.0023
vn 0.9970 -0.0667 -0.0395
vn 0.9996 0.0097 0.0251
vn -0.9996 0.0097 0.0251
vn -0.9970 -0.0667 -0.0395
vn -0.9962 -0.0865 -0.0056
vn 0.9995 -0.0067 0.0303
vn -0.7549 0.4343 -0.4914
vn 0.6066 0.7921 -0.0683
vt 0.515772 0.821781
vt 0.625388 0.756933
vt 0.569689 0.225805
vt 0.457986 0.264329
vt 0.429697 0.225223
vt 0.397931 0.822627
vt 0.389066 0.956474
vt 0.355902 0.823799
vt 0.862494 0.138393
vt 0.750467 0.058770
vt 0.857659 0.028456
vt 0.675641 0.823799
vt 0.660182 0.736860
vt 0.517188 0.737135
vt 0.334838 0.645227
vt 0.517188 0.581217
vt 0.517188 0.388751
vt 0.325537 0.474099
vt 0.359433 0.434307
vt 0.110740 0.657075
vt 0.019329 0.618780
vt 0.106118 0.612450
vt 0.884813 0.688697
vt 0.790866 0.611851
vt 0.882443 0.625998
vt 0.569714 0.153607
vt 0.474942 0.055763
vt 0.570099 0.056092
vt 0.952990 0.629390
vt 0.219683 0.600428
vt 0.642477 0.956474
vt 0.633612 0.822627
vt 0.764355 0.216352
vt 0.870111 0.311580
vt 0.406155 0.756933
vt 0.371361 0.736860
vt 0.429885 0.955374
vt 0.515772 0.954859
vt 0.601658 0.955374
vt 0.967098 0.207436
vt 0.963866 0.133935
vt 0.660581 0.055763
vt 0.691979 0.467962
vt 0.658083 0.418794
vt 0.691979 0.649194
vt 0.967098 0.049243
vt 0.670317 0.264329
vt 0.709424 0.225223
vt 0.710853 0.153090
vt 0.517188 0.442643
vt 0.972185 0.735586
vt 0.882216 0.810991
vt 0.209728 0.792111
vt 0.225626 0.638010
vt 0.102460 0.779974
vt 0.016302 0.709726
vt 0.746115 0.804735
vt 0.756107 0.652225
vt 0.431125 0.153090
vt 0.517188 0.341594
vt 0.691979 0.341801
vt 0.570336 0.008947
vt 0.674689 0.008593
vt 0.207764 0.573581
vt 0.096827 0.574660
vt 0.878201 0.586679
vt 0.962768 0.586949
vt 0.464676 0.008593
vt 0.805420 0.588031
vt 0.019430 0.581906
vt 0.325537 0.348274
vt 0.761122 0.142851
vt 0.371600 0.720303
vt 0.646430 0.725667
vt 0.966017 0.805340
vt 0.016734 0.777480
vt 0.515772 0.758768
vt 0.569066 0.297090
s 1
usemtl Material.001
f 25/1/1 44/2/1 3/2/1
f 33/3/2 7/4/2 26/5/2
f 15/6/3 29/7/3 31/8/3
f 24/9/4 4/10/5 20/11/6
f 30/12/7 3/2/7 28/13/7
f 21/14/8 27/15/8 32/16/8
f 41/17/9 9/18/9 34/19/9
f 17/20/10 35/21/10 39/22/10
f 18/23/11 36/24/11 38/25/11
f 23/26/12 37/27/12 40/28/12
f 37/29/13 18/23/13 38/25/13
f 34/30/14 17/20/14 39/22/14
f 27/31/15 14/32/15 30/12/15
f 2/33/16 24/9/4 19/34/17
f 7/35/18 31/8/18 26/36/18
f 5/37/19 25/1/19 21/38/19
f 1/39/20 25/1/20 14/32/20
f 6/40/21 24/9/4 13/41/22
f 35/42/23 23/26/23 40/28/23
f 12/43/24 41/17/24 36/44/24
f 29/45/25 21/14/25 32/16/25
f 24/9/4 8/46/26 13/41/22
f 3/47/27 33/3/27 28/48/27
f 25/1/28 3/2/28 14/32/28
f 11/49/29 33/3/29 23/26/29
f 12/43/30 32/16/30 22/50/30
f 10/51/31 31/52/31 18/23/31
f 27/53/32 17/20/32 9/54/32
f 32/16/33 9/18/33 22/50/33
f 30/55/34 11/56/34 17/20/34
f 18/23/35 29/57/35 12/58/35
f 33/3/36 10/59/36 23/26/36
f 36/44/37 19/60/37 6/61/37
f 35/42/38 20/62/38 4/63/38
f 2/64/39 39/22/39 16/65/39
f 37/29/40 13/66/40 8/67/40
f 20/62/41 37/27/41 8/68/41
f 38/25/42 6/69/42 13/66/42
f 16/65/43 35/21/43 4/70/43
f 19/60/44 34/19/44 2/71/44
f 25/1/45 15/6/45 7/35/45
f 33/3/46 43/4/46 7/4/46
f 15/6/47 5/37/47 29/7/47
f 24/9/4 16/72/48 4/10/5
f 30/12/49 14/32/49 3/2/49
f 21/14/50 1/73/50 27/15/50
f 41/17/51 22/50/51 9/18/51
f 17/20/52 11/56/52 35/21/52
f 18/23/53 12/58/53 36/24/53
f 23/26/54 10/59/54 37/27/54
f 37/29/55 10/51/55 18/23/55
f 34/30/56 9/54/56 17/20/56
f 27/31/57 1/39/57 14/32/57
f 2/33/16 16/72/48 24/9/4
f 7/35/58 15/6/58 31/8/58
f 5/37/59 15/6/59 25/1/59
f 1/39/60 21/38/60 25/1/60
f 6/40/21 19/34/17 24/9/4
f 35/42/61 11/49/61 23/26/61
f 12/43/62 22/50/62 41/17/62
f 29/45/63 5/74/63 21/14/63
f 24/9/4 20/11/6 8/46/26
f 33/3/64 44/47/64 46/3/64
f 25/1/65 43/35/65 45/1/65
f 11/49/66 28/48/66 33/3/66
f 12/43/67 29/45/67 32/16/67
f 10/51/68 26/75/68 31/52/68
f 27/53/69 30/55/69 17/20/69
f 32/16/70 27/15/70 9/18/70
f 30/55/71 28/76/71 11/56/71
f 18/23/72 31/52/72 29/57/72
f 33/3/73 26/5/73 10/59/73
f 36/44/74 41/17/74 19/60/74
f 35/42/75 40/28/75 20/62/75
f 2/64/76 34/30/76 39/22/76
f 37/29/77 38/25/77 13/66/77
f 20/62/78 40/28/78 37/27/78
f 38/25/79 36/24/79 6/69/79
f 16/65/80 39/22/80 35/21/80
f 19/60/81 41/17/81 34/19/81
f 45/1/82 43/35/82 42/77/82
f 46/3/83 42/78/83 43/4/83
f 44/47/84 42/78/84 46/3/84
f 45/1/85 42/77/85 44/2/85
f 25/1/86 45/1/86 44/2/86
f 33/3/87 46/3/87 43/4/87
f 33/3/88 3/47/88 44/47/88
f 25/1/89 7/35/89 43/35/89
