# Blender 4.4.1
# www.blender.org
mtllib gameOverFont.mtl
o テキスト
v -5.985777 -0.304900 -0.189514
v -5.761764 0.253095 -0.189379
v -5.535801 -0.304900 -0.194163
v -5.516802 -0.304900 -0.194359
v -5.240786 0.383094 -0.194191
v -5.338780 0.383094 -0.193178
v -5.526792 -0.086902 -0.193299
v -5.715760 0.383094 -0.189284
v -5.808755 0.383094 -0.188323
v -5.998766 -0.086902 -0.188423
v -6.184735 0.383094 -0.184438
v -6.281730 0.383094 -0.183436
v -6.004776 -0.304900 -0.189318
v -4.793840 -0.304900 -0.201828
v -4.569827 0.253095 -0.201693
v -4.343864 -0.304900 -0.206477
v -4.324865 -0.304900 -0.206673
v -4.048849 0.383094 -0.206505
v -4.146843 0.383094 -0.205492
v -4.334855 -0.086902 -0.205613
v -4.523823 0.383094 -0.201598
v -4.616818 0.383094 -0.200637
v -4.806829 -0.086902 -0.200737
v -4.992799 0.383094 -0.196753
v -5.089793 0.383094 -0.195751
v -4.812839 -0.304900 -0.201632
v -3.601903 -0.304900 -0.214142
v -3.377890 0.253095 -0.214007
v -3.151927 -0.304900 -0.218791
v -3.132928 -0.304900 -0.218987
v -2.856912 0.383094 -0.218819
v -2.954906 0.383094 -0.217806
v -3.142918 -0.086902 -0.217927
v -3.331886 0.383094 -0.213912
v -3.424881 0.383094 -0.212951
v -3.614893 -0.086902 -0.213051
v -3.800861 0.383094 -0.209067
v -3.897856 0.383094 -0.208065
v -3.620902 -0.304900 -0.213946
v -1.951964 0.295094 -0.228554
v -1.951974 0.089096 -0.229458
v -2.230958 0.089096 -0.226576
v -2.230963 0.001097 -0.226962
v -1.951977 0.001097 -0.229845
v -1.951987 -0.210901 -0.230775
v -2.249971 -0.210901 -0.227697
v -2.249975 -0.298900 -0.228083
v -1.853996 -0.298900 -0.232174
v -1.853965 0.383094 -0.229181
v -2.240944 0.383094 -0.225183
v -2.240948 0.295094 -0.225569
v -1.493015 -0.298900 -0.235903
v -1.146019 0.038097 -0.238009
v -1.146034 -0.298900 -0.239488
v -1.048039 -0.298900 -0.240500
v -1.048008 0.383094 -0.237507
v -1.146003 0.383094 -0.236495
v -1.146017 0.071097 -0.237864
v -1.432988 0.383094 -0.233530
v -1.554981 0.383094 -0.232269
v -1.258012 0.060097 -0.236755
v -1.628008 -0.298900 -0.234508
v -0.723056 -0.298900 -0.243858
v -0.632052 -0.097902 -0.243916
v -0.342068 -0.097902 -0.246912
v -0.256081 -0.298900 -0.248682
v -0.156087 -0.298900 -0.249715
v -0.449040 0.387094 -0.243678
v -0.518036 0.387094 -0.242965
v -0.823051 -0.298900 -0.242825
v -0.592050 -0.009903 -0.243943
v -0.482045 0.237095 -0.243995
v -0.380062 -0.009903 -0.246133
v 0.163896 -0.298900 -0.253021
v 0.163920 0.232095 -0.250690
v 0.165920 0.232095 -0.250711
v 0.375897 -0.031902 -0.254039
v 0.391896 -0.031902 -0.254205
v 0.601897 0.232095 -0.255215
v 0.603897 0.232095 -0.255236
v 0.603873 -0.298900 -0.257566
v 0.701867 -0.298900 -0.258579
v 0.701898 0.383094 -0.255586
v 0.609903 0.383094 -0.254635
v 0.383902 0.103096 -0.253529
v 0.156927 0.383094 -0.249955
v 0.065932 0.383094 -0.249015
v 0.065901 -0.298900 -0.252009
v 1.710358 0.388835 -0.265979
v 1.659537 0.379362 -0.265496
v 1.612583 0.364125 -0.265077
v 1.569702 0.343575 -0.264725
v 1.531098 0.318165 -0.264437
v 1.496976 0.288345 -0.264216
v 1.467542 0.254566 -0.264060
v 1.442999 0.217280 -0.263970
v 1.423553 0.176939 -0.263946
v 1.409409 0.133994 -0.263988
v 1.400772 0.088896 -0.264097
v 1.397846 0.042097 -0.264272
v 1.400692 -0.003442 -0.264502
v 1.409132 -0.047717 -0.264783
v 1.423010 -0.090214 -0.265113
v 1.442168 -0.130420 -0.265488
v 1.466452 -0.167820 -0.265903
v 1.495704 -0.201901 -0.266354
v 1.529769 -0.232148 -0.266839
v 1.568489 -0.258048 -0.267353
v 1.611710 -0.279088 -0.267892
v 1.659275 -0.294752 -0.268452
v 1.711027 -0.304527 -0.269029
v 1.766810 -0.307900 -0.269621
v 1.820815 -0.304546 -0.270164
v 1.871198 -0.294821 -0.270642
v 1.917756 -0.279228 -0.271054
v 1.960283 -0.258271 -0.271401
v 1.998575 -0.232452 -0.271684
v 2.032426 -0.202276 -0.271901
v 2.061631 -0.168245 -0.272053
v 2.085986 -0.130864 -0.272141
v 2.105286 -0.090636 -0.272164
v 2.119326 -0.048064 -0.272122
v 2.127901 -0.003652 -0.272016
v 2.130807 0.042097 -0.271845
v 2.127828 0.088686 -0.271609
v 2.119047 0.133647 -0.271321
v 2.104704 0.176517 -0.270985
v 2.085039 0.216836 -0.270605
v 2.060290 0.254141 -0.270186
v 2.030698 0.287970 -0.269731
v 1.996501 0.317861 -0.269247
v 1.957940 0.343353 -0.268737
v 1.915254 0.363984 -0.268205
v 1.868683 0.379293 -0.267657
v 1.818466 0.388816 -0.267096
v 1.764842 0.392094 -0.266528
v 1.727442 -0.215630 -0.268809
v 1.691990 -0.208989 -0.268413
v 1.658712 -0.198229 -0.268022
v 1.627860 -0.183605 -0.267639
v 1.599689 -0.165369 -0.267268
v 1.574453 -0.143776 -0.266913
v 1.552404 -0.119079 -0.266577
v 1.533795 -0.091531 -0.266263
v 1.518881 -0.061386 -0.265977
v 1.507915 -0.028898 -0.265721
v 1.501150 0.005681 -0.265500
v 1.498840 0.042097 -0.265316
v 1.501154 0.078723 -0.265179
v 1.507922 0.113439 -0.265096
v 1.518891 0.146002 -0.265067
v 1.533807 0.176170 -0.265089
v 1.552418 0.203698 -0.265160
v 1.574469 0.228345 -0.265280
v 1.599708 0.249867 -0.265446
v 1.627881 0.268021 -0.265657
v 1.658733 0.282563 -0.265912
v 1.692013 0.293252 -0.266209
v 1.727465 0.299843 -0.266546
v 1.764838 0.302094 -0.266923
v 1.801980 0.299843 -0.267316
v 1.837241 0.293252 -0.267709
v 1.870363 0.282563 -0.268099
v 1.901088 0.268021 -0.268480
v 1.929161 0.249867 -0.268850
v 1.954324 0.228345 -0.269204
v 1.976321 0.203698 -0.269539
v 1.994894 0.176170 -0.269852
v 2.009787 0.146002 -0.270138
v 2.020742 0.113439 -0.270395
v 2.027503 0.078723 -0.270617
v 2.029812 0.042097 -0.270801
v 2.027499 0.005681 -0.270937
v 2.020735 -0.028898 -0.271019
v 2.009777 -0.061387 -0.271049
v 1.994882 -0.091531 -0.271027
v 1.976306 -0.119079 -0.270956
v 1.954307 -0.143776 -0.270837
v 1.929142 -0.165369 -0.270672
v 1.901068 -0.183605 -0.270462
v 1.870341 -0.198229 -0.270209
v 1.837218 -0.208989 -0.269914
v 1.801957 -0.215630 -0.269579
v 1.764814 -0.217901 -0.269205
v 2.484772 -0.298900 -0.276998
v 2.940772 0.226095 -0.279405
v 2.940748 -0.298900 -0.281709
v 3.032743 -0.298900 -0.282660
v 3.032774 0.383094 -0.279666
v 2.954778 0.383094 -0.278861
v 2.492779 -0.144901 -0.276405
v 2.492803 0.383094 -0.274088
v 2.400807 0.383094 -0.273137
v 2.400776 -0.298900 -0.276131
v 3.583740 0.295094 -0.285745
v 3.583731 0.089096 -0.286649
v 3.304746 0.089096 -0.283767
v 3.304742 0.001097 -0.284153
v 3.583727 0.001097 -0.287035
v 3.583717 -0.210901 -0.287966
v 3.285733 -0.210901 -0.284887
v 3.285729 -0.298900 -0.285273
v 3.681708 -0.298900 -0.289364
v 3.681739 0.383094 -0.286371
v 3.294760 0.383094 -0.282373
v 3.294755 0.295094 -0.282759
v 4.006691 -0.298900 -0.292722
v 4.097695 -0.097902 -0.292780
v 4.387680 -0.097902 -0.295775
v 4.473666 -0.298900 -0.297546
v 4.573660 -0.298900 -0.298579
v 4.280707 0.387094 -0.292541
v 4.211711 0.387094 -0.291829
v 3.906696 -0.298900 -0.291689
v 4.137697 -0.009903 -0.292807
v 4.247702 0.237095 -0.292859
v 4.349686 -0.009903 -0.294997
v 4.893643 -0.298900 -0.301885
v 4.893667 0.232095 -0.299554
v 4.895667 0.232095 -0.299575
v 5.105644 -0.031902 -0.302903
v 5.121644 -0.031902 -0.303068
v 5.331644 0.232095 -0.304079
v 5.333644 0.232095 -0.304100
v 5.333620 -0.298900 -0.306430
v 5.431614 -0.298900 -0.307443
v 5.431645 0.383094 -0.304450
v 5.339650 0.383094 -0.303499
v 5.113650 0.103096 -0.302393
v 4.886674 0.383094 -0.298819
v 4.795679 0.383094 -0.297879
v 4.795648 -0.298900 -0.300873
v 6.012128 0.388835 -0.310421
v 5.961307 0.379362 -0.309938
v 5.914353 0.364125 -0.309520
v 5.871472 0.343575 -0.309167
v 5.832868 0.318165 -0.308880
v 5.798747 0.288345 -0.308658
v 5.769312 0.254566 -0.308502
v 5.744770 0.217280 -0.308412
v 5.725324 0.176939 -0.308389
v 5.711180 0.133994 -0.308431
v 5.702542 0.088896 -0.308540
v 5.699616 0.042097 -0.308715
v 5.702463 -0.003442 -0.308944
v 5.710903 -0.047717 -0.309226
v 5.724780 -0.090214 -0.309556
v 5.743938 -0.130420 -0.309930
v 5.768222 -0.167820 -0.310345
v 5.797474 -0.201901 -0.310797
v 5.831539 -0.232148 -0.311282
v 5.870259 -0.258048 -0.311795
v 5.913480 -0.279088 -0.312334
v 5.961045 -0.294752 -0.312894
v 6.012797 -0.304527 -0.313472
v 6.068581 -0.307900 -0.314063
v 6.122585 -0.304546 -0.314606
v 6.172969 -0.294821 -0.315084
v 6.219527 -0.279228 -0.315497
v 6.262053 -0.258271 -0.315844
v 6.300345 -0.232452 -0.316126
v 6.334196 -0.202276 -0.316343
v 6.363401 -0.168245 -0.316496
v 6.387756 -0.130864 -0.316583
v 6.407056 -0.090636 -0.316606
v 6.421096 -0.048064 -0.316564
v 6.429671 -0.003652 -0.316458
v 6.432577 0.042097 -0.316287
v 6.429598 0.088686 -0.316052
v 6.420818 0.133647 -0.315764
v 6.406475 0.176517 -0.315427
v 6.386809 0.216836 -0.315047
v 6.362061 0.254141 -0.314628
v 6.332468 0.287970 -0.314174
v 6.298272 0.317861 -0.313689
v 6.259711 0.343353 -0.313179
v 6.217025 0.363984 -0.312647
v 6.170453 0.379293 -0.312099
v 6.120236 0.388816 -0.311538
v 6.066612 0.392094 -0.310970
v 6.029212 -0.215630 -0.313251
v 5.993760 -0.208989 -0.312856
v 5.960481 -0.198229 -0.312465
v 5.929629 -0.183605 -0.312082
v 5.901459 -0.165369 -0.311711
v 5.876222 -0.143776 -0.311355
v 5.854174 -0.119079 -0.311019
v 5.835565 -0.091531 -0.310706
v 5.820651 -0.061386 -0.310419
v 5.809685 -0.028898 -0.310164
v 5.802920 0.005681 -0.309942
v 5.800611 0.042097 -0.309758
v 5.802924 0.078723 -0.309621
v 5.809692 0.113439 -0.309539
v 5.820661 0.146002 -0.309509
v 5.835578 0.176170 -0.309531
v 5.854188 0.203698 -0.309602
v 5.876240 0.228345 -0.309722
v 5.901478 0.249867 -0.309888
v 5.929650 0.268021 -0.310100
v 5.960504 0.282563 -0.310355
v 5.993783 0.293252 -0.310651
v 6.029235 0.299843 -0.310989
v 6.066608 0.302094 -0.311365
v 6.103751 0.299843 -0.311759
v 6.139012 0.293252 -0.312152
v 6.172133 0.282563 -0.312541
v 6.202859 0.268021 -0.312922
v 6.230932 0.249867 -0.313292
v 6.256095 0.228345 -0.313646
v 6.278091 0.203698 -0.313982
v 6.296665 0.176170 -0.314295
v 6.311557 0.146002 -0.314581
v 6.322512 0.113439 -0.314837
v 6.329273 0.078723 -0.315059
v 6.331582 0.042097 -0.315244
v 6.329269 0.005681 -0.315380
v 6.322505 -0.028898 -0.315462
v 6.311547 -0.061387 -0.315491
v 6.296652 -0.091531 -0.315469
v 6.278077 -0.119079 -0.315398
v 6.256078 -0.143776 -0.315280
v 6.230913 -0.165369 -0.315114
v 6.202838 -0.183605 -0.314904
v 6.172111 -0.198229 -0.314651
v 6.138988 -0.208989 -0.314356
v 6.103727 -0.215630 -0.314021
v 6.066585 -0.217901 -0.313647
v -5.980612 -0.307094 0.310455
v -5.756598 0.250900 0.310590
v -5.530636 -0.307094 0.305806
v -5.511637 -0.307094 0.305610
v -5.235620 0.380899 0.305778
v -5.333615 0.380899 0.306790
v -5.521626 -0.089096 0.306670
v -5.710595 0.380899 0.310685
v -5.803590 0.380899 0.311646
v -5.993601 -0.089096 0.311546
v -6.179570 0.380899 0.315530
v -6.276565 0.380899 0.316532
v -5.999610 -0.307094 0.310651
v -4.788675 -0.307094 0.298141
v -4.564662 0.250900 0.298275
v -4.338699 -0.307094 0.293492
v -4.319700 -0.307094 0.293295
v -4.043684 0.380899 0.293464
v -4.141678 0.380899 0.294476
v -4.329690 -0.089096 0.294356
v -4.518658 0.380899 0.298371
v -4.611653 0.380899 0.299332
v -4.801664 -0.089096 0.299232
v -4.987634 0.380899 0.303216
v -5.084628 0.380899 0.304218
v -4.807674 -0.307094 0.298337
v -3.596738 -0.307094 0.285826
v -3.372725 0.250900 0.285961
v -3.146762 -0.307094 0.281178
v -3.127763 -0.307094 0.280981
v -2.851747 0.380899 0.281150
v -2.949741 0.380899 0.282162
v -3.137753 -0.089096 0.282041
v -3.326721 0.380899 0.286057
v -3.419716 0.380899 0.287017
v -3.609728 -0.089096 0.286917
v -3.795696 0.380899 0.290902
v -3.892691 0.380899 0.291904
v -3.615737 -0.307094 0.286023
v -1.946799 0.292900 0.271414
v -1.946808 0.086902 0.270510
v -2.225793 0.086902 0.273392
v -2.225797 -0.001097 0.273006
v -1.946812 -0.001097 0.270124
v -1.946822 -0.213095 0.269193
v -2.244806 -0.213095 0.272272
v -2.244810 -0.301094 0.271886
v -1.848831 -0.301094 0.267795
v -1.848800 0.380899 0.270788
v -2.235779 0.380899 0.274786
v -2.235783 0.292900 0.274400
v -1.487850 -0.301094 0.264065
v -1.140853 0.035902 0.261960
v -1.140868 -0.301094 0.260481
v -1.042874 -0.301094 0.259468
v -1.042843 0.380899 0.262461
v -1.140838 0.380899 0.263474
v -1.140852 0.068902 0.262105
v -1.427822 0.380899 0.266439
v -1.549816 0.380899 0.267699
v -1.252846 0.057902 0.263213
v -1.622843 -0.301094 0.265460
v -0.717891 -0.301094 0.256111
v -0.626887 -0.100096 0.256053
v -0.336902 -0.100096 0.253057
v -0.250916 -0.301094 0.251286
v -0.150921 -0.301094 0.250253
v -0.443875 0.384899 0.256291
v -0.512871 0.384899 0.257004
v -0.817886 -0.301094 0.257144
v -0.586885 -0.012097 0.256026
v -0.476880 0.234900 0.255974
v -0.374896 -0.012097 0.253836
v 0.169061 -0.301094 0.246948
v 0.169085 0.229900 0.249278
v 0.171085 0.229900 0.249257
v 0.381062 -0.034097 0.245929
v 0.397061 -0.034097 0.245764
v 0.607062 0.229900 0.244753
v 0.609062 0.229900 0.244733
v 0.609038 -0.301094 0.242402
v 0.707033 -0.301094 0.241390
v 0.707063 0.380899 0.244383
v 0.615068 0.380899 0.245333
v 0.389068 0.100902 0.246439
v 0.162093 0.380899 0.250013
v 0.071097 0.380899 0.250953
v 0.071066 -0.301094 0.247960
v 1.715523 0.386641 0.233989
v 1.664702 0.377168 0.234473
v 1.617748 0.361930 0.234891
v 1.574867 0.341381 0.235244
v 1.536263 0.315970 0.235531
v 1.502142 0.286150 0.235753
v 1.472707 0.252371 0.235909
v 1.448165 0.215086 0.235999
v 1.428719 0.174745 0.236022
v 1.414575 0.131800 0.235980
v 1.405937 0.086702 0.235871
v 1.403011 0.039902 0.235696
v 1.405857 -0.005637 0.235467
v 1.414298 -0.049912 0.235185
v 1.428175 -0.092409 0.234855
v 1.447334 -0.132615 0.234481
v 1.471617 -0.170015 0.234066
v 1.500870 -0.204095 0.233614
v 1.534934 -0.234343 0.233129
v 1.573655 -0.260243 0.232616
v 1.616876 -0.281282 0.232077
v 1.664440 -0.296946 0.231517
v 1.716192 -0.306722 0.230939
v 1.771975 -0.310094 0.230348
v 1.825980 -0.306741 0.229805
v 1.876364 -0.297016 0.229327
v 1.922921 -0.281423 0.228914
v 1.965448 -0.260465 0.228567
v 2.003740 -0.234647 0.228285
v 2.037591 -0.204470 0.228068
v 2.066796 -0.170440 0.227915
v 2.091151 -0.133059 0.227828
v 2.110451 -0.092831 0.227805
v 2.124491 -0.050259 0.227847
v 2.133066 -0.005847 0.227953
v 2.135972 0.039902 0.228124
v 2.132993 0.086492 0.228359
v 2.124212 0.131452 0.228647
v 2.109869 0.174323 0.228983
v 2.090204 0.214641 0.229364
v 2.065455 0.251946 0.229783
v 2.035863 0.285775 0.230237
v 2.001667 0.315666 0.230722
v 1.963106 0.341159 0.231232
v 1.920420 0.361790 0.231764
v 1.873848 0.377098 0.232312
v 1.823631 0.386622 0.232872
v 1.770007 0.389899 0.233441
v 1.732607 -0.217825 0.231160
v 1.697155 -0.211183 0.231555
v 1.663877 -0.200423 0.231946
v 1.633026 -0.185799 0.232329
v 1.604855 -0.167564 0.232700
v 1.579618 -0.145971 0.233056
v 1.557569 -0.121274 0.233392
v 1.538961 -0.093726 0.233705
v 1.524047 -0.063581 0.233991
v 1.513081 -0.031092 0.234247
v 1.506316 0.003487 0.234469
v 1.504006 0.039902 0.234653
v 1.506319 0.076528 0.234790
v 1.513087 0.111244 0.234872
v 1.524056 0.143808 0.234902
v 1.538973 0.173975 0.234880
v 1.557583 0.201504 0.234809
v 1.579635 0.226151 0.234689
v 1.604874 0.247672 0.234523
v 1.633046 0.265826 0.234311
v 1.663899 0.280369 0.234056
v 1.697178 0.291057 0.233759
v 1.732631 0.297649 0.233422
v 1.770003 0.299900 0.233046
v 1.807146 0.297649 0.232652
v 1.842406 0.291057 0.232259
v 1.875528 0.280369 0.231870
v 1.906254 0.265826 0.231489
v 1.934327 0.247672 0.231119
v 1.959490 0.226151 0.230765
v 1.981486 0.201504 0.230429
v 2.000059 0.173975 0.230116
v 2.014952 0.143808 0.229830
v 2.025907 0.111244 0.229574
v 2.032668 0.076528 0.229352
v 2.034977 0.039902 0.229167
v 2.032664 0.003487 0.229031
v 2.025900 -0.031092 0.228949
v 2.014942 -0.063581 0.228920
v 2.000047 -0.093726 0.228941
v 1.981472 -0.121274 0.229012
v 1.959473 -0.145971 0.229131
v 1.934308 -0.167564 0.229297
v 1.906233 -0.185799 0.229507
v 1.875506 -0.200423 0.229760
v 1.842384 -0.211183 0.230055
v 1.807122 -0.217825 0.230390
v 1.769980 -0.220095 0.230764
v 2.489937 -0.301094 0.222970
v 2.945937 0.223901 0.220563
v 2.945913 -0.301094 0.218259
v 3.037908 -0.301094 0.217309
v 3.037939 0.380899 0.220302
v 2.959943 0.380899 0.221108
v 2.497944 -0.147096 0.223563
v 2.497968 0.380899 0.225881
v 2.405972 0.380899 0.226831
v 2.405941 -0.301094 0.223838
v 3.588905 0.292900 0.214224
v 3.588896 0.086902 0.213320
v 3.309911 0.086902 0.216202
v 3.309907 -0.001097 0.215816
v 3.588892 -0.001097 0.212933
v 3.588882 -0.213095 0.212003
v 3.290898 -0.213095 0.215081
v 3.290894 -0.301094 0.214695
v 3.686873 -0.301094 0.210604
v 3.686904 0.380899 0.213598
v 3.299925 0.380899 0.217595
v 3.299921 0.292900 0.217209
v 4.011856 -0.301094 0.207247
v 4.102860 -0.100096 0.207189
v 4.392845 -0.100096 0.204193
v 4.478831 -0.301094 0.202422
v 4.578825 -0.301094 0.201389
v 4.285872 0.384899 0.207427
v 4.216877 0.384899 0.208140
v 3.911861 -0.301094 0.208280
v 4.142862 -0.012097 0.207162
v 4.252867 0.234900 0.207110
v 4.354851 -0.012097 0.204972
v 4.898808 -0.301094 0.198084
v 4.898832 0.229900 0.200414
v 4.900832 0.229900 0.200393
v 5.110809 -0.034097 0.197065
v 5.126809 -0.034097 0.196900
v 5.336809 0.229900 0.195889
v 5.338809 0.229900 0.195869
v 5.338785 -0.301094 0.193538
v 5.436779 -0.301094 0.192526
v 5.436810 0.380899 0.195519
v 5.344815 0.380899 0.196469
v 5.118815 0.100902 0.197575
v 4.891840 0.380899 0.201149
v 4.800844 0.380899 0.202089
v 4.800813 -0.301094 0.199096
v 6.017293 0.386641 0.189547
v 5.966472 0.377168 0.190030
v 5.919518 0.361930 0.190449
v 5.876637 0.341381 0.190802
v 5.838033 0.315970 0.191089
v 5.803912 0.286150 0.191310
v 5.774477 0.252371 0.191466
v 5.749935 0.215086 0.191556
v 5.730489 0.174745 0.191580
v 5.716345 0.131800 0.191538
v 5.707707 0.086702 0.191429
v 5.704781 0.039902 0.191254
v 5.707628 -0.005637 0.191024
v 5.716068 -0.049912 0.190743
v 5.729945 -0.092409 0.190413
v 5.749104 -0.132615 0.190039
v 5.773387 -0.170015 0.189624
v 5.802639 -0.204095 0.189172
v 5.836704 -0.234343 0.188687
v 5.875424 -0.260243 0.188173
v 5.918645 -0.281282 0.187634
v 5.966210 -0.296946 0.187074
v 6.017962 -0.306722 0.186497
v 6.073746 -0.310094 0.185906
v 6.127750 -0.306741 0.185362
v 6.178134 -0.297016 0.184885
v 6.224692 -0.281423 0.184472
v 6.267219 -0.260465 0.184125
v 6.305511 -0.234647 0.183842
v 6.339361 -0.204470 0.183625
v 6.368567 -0.170440 0.183473
v 6.392921 -0.133059 0.183385
v 6.412221 -0.092831 0.183362
v 6.426261 -0.050259 0.183404
v 6.434836 -0.005847 0.183511
v 6.437742 0.039902 0.183681
v 6.434763 0.086492 0.183917
v 6.425983 0.131452 0.184205
v 6.411640 0.174323 0.184541
v 6.391974 0.214641 0.184921
v 6.367226 0.251946 0.185341
v 6.337633 0.285775 0.185795
v 6.303437 0.315666 0.186279
v 6.264876 0.341159 0.186790
v 6.222190 0.361790 0.187321
v 6.175618 0.377098 0.187869
v 6.125401 0.386622 0.188430
v 6.071777 0.389899 0.188998
v 6.034377 -0.217825 0.186717
v 5.998925 -0.211183 0.187113
v 5.965646 -0.200423 0.187504
v 5.934794 -0.185799 0.187887
v 5.906624 -0.167564 0.188258
v 5.881387 -0.145971 0.188613
v 5.859339 -0.121274 0.188949
v 5.840730 -0.093726 0.189263
v 5.825816 -0.063581 0.189549
v 5.814850 -0.031092 0.189805
v 5.808085 0.003487 0.190027
v 5.805776 0.039902 0.190210
v 5.808089 0.076528 0.190347
v 5.814857 0.111244 0.190430
v 5.825826 0.143808 0.190459
v 5.840743 0.173975 0.190438
v 5.859354 0.201504 0.190366
v 5.881405 0.226151 0.190246
v 5.906643 0.247672 0.190080
v 5.934815 0.265826 0.189869
v 5.965669 0.280369 0.189614
v 5.998948 0.291057 0.189317
v 6.034400 0.297649 0.188980
v 6.071774 0.299900 0.188603
v 6.108916 0.297649 0.188210
v 6.144177 0.291057 0.187817
v 6.177299 0.280369 0.187428
v 6.208024 0.265826 0.187046
v 6.236097 0.247672 0.186677
v 6.261261 0.226151 0.186322
v 6.283257 0.201504 0.185987
v 6.301830 0.173975 0.185674
v 6.316722 0.143808 0.185388
v 6.327677 0.111244 0.185132
v 6.334438 0.076528 0.184909
v 6.336747 0.039902 0.184725
v 6.334434 0.003487 0.184589
v 6.327670 -0.031092 0.184507
v 6.316712 -0.063581 0.184477
v 6.301817 -0.093726 0.184499
v 6.283242 -0.121274 0.184570
v 6.261243 -0.145971 0.184689
v 6.236078 -0.167564 0.184854
v 6.208003 -0.185799 0.185064
v 6.177276 -0.200423 0.185317
v 6.144154 -0.211183 0.185612
v 6.108892 -0.217825 0.185947
v 6.071750 -0.220095 0.186321
v 6.017293 0.386641 0.189547
v 6.012128 0.388835 -0.310421
v 5.966472 0.377168 0.190030
v 5.961307 0.379362 -0.309938
v 5.919518 0.361930 0.190449
v 5.914353 0.364125 -0.309520
v 5.876637 0.341381 0.190802
v 5.871472 0.343575 -0.309167
v 5.838033 0.315970 0.191089
v 5.832868 0.318165 -0.308880
v 5.803912 0.286150 0.191310
v 5.798747 0.288345 -0.308658
v 5.774477 0.252371 0.191466
v 5.769312 0.254566 -0.308502
v 5.749935 0.215086 0.191556
v 5.744770 0.217280 -0.308412
v 5.730489 0.174745 0.191580
v 5.725324 0.176939 -0.308389
v 5.716345 0.131800 0.191538
v 5.711180 0.133994 -0.308431
v 5.707707 0.086702 0.191429
v 5.702542 0.088896 -0.308540
v 5.704781 0.039902 0.191254
v 5.699616 0.042097 -0.308715
v 5.707628 -0.005637 0.191024
v 5.702463 -0.003442 -0.308944
v 5.716068 -0.049912 0.190743
v 5.710903 -0.047717 -0.309226
v 5.729945 -0.092409 0.190413
v 5.724780 -0.090214 -0.309556
v 5.749104 -0.132615 0.190039
v 5.743938 -0.130420 -0.309930
v 5.773387 -0.170015 0.189624
v 5.768222 -0.167820 -0.310345
v 5.802639 -0.204095 0.189172
v 5.797474 -0.201901 -0.310797
v 5.836704 -0.234343 0.188687
v 5.831539 -0.232148 -0.311282
v 5.875424 -0.260243 0.188173
v 5.870259 -0.258048 -0.311795
v 5.918645 -0.281282 0.187634
v 5.913480 -0.279088 -0.312334
v 5.966210 -0.296946 0.187074
v 5.961045 -0.294752 -0.312894
v 6.017962 -0.306722 0.186497
v 6.012797 -0.304527 -0.313472
v 6.073746 -0.310094 0.185906
v 6.068581 -0.307900 -0.314063
v 6.127750 -0.306741 0.185362
v 6.122585 -0.304546 -0.314606
v 6.178134 -0.297016 0.184885
v 6.172969 -0.294821 -0.315084
v 6.224692 -0.281423 0.184472
v 6.219527 -0.279228 -0.315497
v 6.267219 -0.260465 0.184125
v 6.262053 -0.258271 -0.315844
v 6.305511 -0.234647 0.183842
v 6.300345 -0.232452 -0.316126
v 6.339361 -0.204470 0.183625
v 6.334196 -0.202276 -0.316343
v 6.368567 -0.170440 0.183473
v 6.363401 -0.168245 -0.316496
v 6.392921 -0.133059 0.183385
v 6.387756 -0.130864 -0.316583
v 6.412221 -0.092831 0.183362
v 6.407056 -0.090636 -0.316606
v 6.426261 -0.050259 0.183404
v 6.421096 -0.048064 -0.316564
v 6.434836 -0.005847 0.183511
v 6.429671 -0.003652 -0.316458
v 6.437742 0.039902 0.183681
v 6.432577 0.042097 -0.316287
v 6.434763 0.086492 0.183917
v 6.429598 0.088686 -0.316052
v 6.425983 0.131452 0.184205
v 6.420818 0.133647 -0.315764
v 6.411640 0.174323 0.184541
v 6.406475 0.176517 -0.315427
v 6.391974 0.214641 0.184921
v 6.386809 0.216836 -0.315047
v 6.367226 0.251946 0.185341
v 6.362061 0.254141 -0.314628
v 6.337633 0.285775 0.185795
v 6.332468 0.287970 -0.314174
v 6.303437 0.315666 0.186279
v 6.298272 0.317861 -0.313689
v 6.264876 0.341159 0.186790
v 6.259711 0.343353 -0.313179
v 6.222190 0.361790 0.187321
v 6.217025 0.363984 -0.312647
v 6.175618 0.377098 0.187869
v 6.170453 0.379293 -0.312099
v 6.125401 0.386622 0.188430
v 6.120236 0.388816 -0.311538
v 6.071777 0.389899 0.188998
v 6.066612 0.392094 -0.310970
v 6.034377 -0.217825 0.186717
v 6.029212 -0.215630 -0.313251
v 5.998925 -0.211183 0.187113
v 5.993760 -0.208989 -0.312856
v 5.965646 -0.200423 0.187504
v 5.960481 -0.198229 -0.312465
v 5.934794 -0.185799 0.187887
v 5.929629 -0.183605 -0.312082
v 5.906624 -0.167564 0.188258
v 5.901459 -0.165369 -0.311711
v 5.881387 -0.145971 0.188613
v 5.876222 -0.143776 -0.311355
v 5.859339 -0.121274 0.188949
v 5.854174 -0.119079 -0.311019
v 5.840730 -0.093726 0.189263
v 5.835565 -0.091531 -0.310706
v 5.825816 -0.063581 0.189549
v 5.820651 -0.061386 -0.310419
v 5.814850 -0.031092 0.189805
v 5.809685 -0.028898 -0.310164
v 5.808085 0.003487 0.190027
v 5.802920 0.005681 -0.309942
v 5.805776 0.039902 0.190210
v 5.800611 0.042097 -0.309758
v 5.808089 0.076528 0.190347
v 5.802924 0.078723 -0.309621
v 5.814857 0.111244 0.190430
v 5.809692 0.113439 -0.309539
v 5.825826 0.143808 0.190459
v 5.820661 0.146002 -0.309509
v 5.840743 0.173975 0.190438
v 5.835578 0.176170 -0.309531
v 5.859354 0.201504 0.190366
v 5.854188 0.203698 -0.309602
v 5.881405 0.226151 0.190246
v 5.876240 0.228345 -0.309722
v 5.906643 0.247672 0.190080
v 5.901478 0.249867 -0.309888
v 5.934815 0.265826 0.189869
v 5.929650 0.268021 -0.310100
v 5.965669 0.280369 0.189614
v 5.960504 0.282563 -0.310355
v 5.998948 0.291057 0.189317
v 5.993783 0.293252 -0.310651
v 6.034400 0.297649 0.188980
v 6.029235 0.299843 -0.310989
v 6.071774 0.299900 0.188603
v 6.066608 0.302094 -0.311365
v 6.108916 0.297649 0.188210
v 6.103751 0.299843 -0.311759
v 6.144177 0.291057 0.187817
v 6.139012 0.293252 -0.312152
v 6.177299 0.280369 0.187428
v 6.172133 0.282563 -0.312541
v 6.208024 0.265826 0.187046
v 6.202859 0.268021 -0.312922
v 6.236097 0.247672 0.186677
v 6.230932 0.249867 -0.313292
v 6.261261 0.226151 0.186322
v 6.256095 0.228345 -0.313646
v 6.283257 0.201504 0.185987
v 6.278091 0.203698 -0.313982
v 6.301830 0.173975 0.185674
v 6.296665 0.176170 -0.314295
v 6.316722 0.143808 0.185388
v 6.311557 0.146002 -0.314581
v 6.327677 0.111244 0.185132
v 6.322512 0.113439 -0.314837
v 6.334438 0.076528 0.184909
v 6.329273 0.078723 -0.315059
v 6.336747 0.039902 0.184725
v 6.331582 0.042097 -0.315244
v 6.334434 0.003487 0.184589
v 6.329269 0.005681 -0.315380
v 6.327670 -0.031092 0.184507
v 6.322505 -0.028898 -0.315462
v 6.316712 -0.063581 0.184477
v 6.311547 -0.061387 -0.315491
v 6.301817 -0.093726 0.184499
v 6.296652 -0.091531 -0.315469
v 6.283242 -0.121274 0.184570
v 6.278077 -0.119079 -0.315398
v 6.261243 -0.145971 0.184689
v 6.256078 -0.143776 -0.315280
v 6.236078 -0.167564 0.184854
v 6.230913 -0.165369 -0.315114
v 6.208003 -0.185799 0.185064
v 6.202838 -0.183605 -0.314904
v 6.177276 -0.200423 0.185317
v 6.172111 -0.198229 -0.314651
v 6.144154 -0.211183 0.185612
v 6.138988 -0.208989 -0.314356
v 6.108892 -0.217825 0.185947
v 6.103727 -0.215630 -0.314021
v 6.071750 -0.220095 0.186321
v 6.066585 -0.217901 -0.313647
v 4.898808 -0.301094 0.198084
v 4.893643 -0.298900 -0.301885
v 4.898832 0.229900 0.200414
v 4.893667 0.232095 -0.299554
v 4.900832 0.229900 0.200393
v 4.895667 0.232095 -0.299575
v 5.110809 -0.034097 0.197065
v 5.105644 -0.031902 -0.302903
v 5.126809 -0.034097 0.196900
v 5.121644 -0.031902 -0.303068
v 5.336809 0.229900 0.195889
v 5.331644 0.232095 -0.304079
v 5.338809 0.229900 0.195869
v 5.333644 0.232095 -0.304100
v 5.338785 -0.301094 0.193538
v 5.333620 -0.298900 -0.306430
v 5.436779 -0.301094 0.192526
v 5.431614 -0.298900 -0.307443
v 5.436810 0.380899 0.195519
v 5.431645 0.383094 -0.304450
v 5.344815 0.380899 0.196469
v 5.339650 0.383094 -0.303499
v 5.118815 0.100902 0.197575
v 5.113650 0.103096 -0.302393
v 4.891840 0.380899 0.201149
v 4.886674 0.383094 -0.298819
v 4.800844 0.380899 0.202089
v 4.795679 0.383094 -0.297879
v 4.800813 -0.301094 0.199096
v 4.795648 -0.298900 -0.300873
v 4.011856 -0.301094 0.207247
v 4.006691 -0.298900 -0.292722
v 4.102860 -0.100096 0.207189
v 4.097695 -0.097902 -0.292780
v 4.392845 -0.100096 0.204193
v 4.387680 -0.097902 -0.295775
v 4.478831 -0.301094 0.202422
v 4.473666 -0.298900 -0.297546
v 4.578825 -0.301094 0.201389
v 4.573660 -0.298900 -0.298579
v 4.285872 0.384899 0.207427
v 4.280707 0.387094 -0.292541
v 4.216877 0.384899 0.208140
v 4.211711 0.387094 -0.291829
v 3.911861 -0.301094 0.208280
v 3.906696 -0.298900 -0.291689
v 4.142862 -0.012097 0.207162
v 4.137697 -0.009903 -0.292807
v 4.252867 0.234900 0.207110
v 4.247702 0.237095 -0.292859
v 4.354851 -0.012097 0.204972
v 4.349686 -0.009903 -0.294997
v 3.588905 0.292900 0.214224
v 3.583740 0.295094 -0.285745
v 3.588896 0.086902 0.213320
v 3.583731 0.089096 -0.286649
v 3.309911 0.086902 0.216202
v 3.304746 0.089096 -0.283767
v 3.309907 -0.001097 0.215816
v 3.304742 0.001097 -0.284153
v 3.588892 -0.001097 0.212933
v 3.583727 0.001097 -0.287035
v 3.588882 -0.213095 0.212003
v 3.583717 -0.210901 -0.287966
v 3.290898 -0.213095 0.215081
v 3.285733 -0.210901 -0.284887
v 3.290894 -0.301094 0.214695
v 3.285729 -0.298900 -0.285273
v 3.686873 -0.301094 0.210604
v 3.681708 -0.298900 -0.289364
v 3.686904 0.380899 0.213598
v 3.681739 0.383094 -0.286371
v 3.299925 0.380899 0.217595
v 3.294760 0.383094 -0.282373
v 3.299921 0.292900 0.217209
v 3.294755 0.295094 -0.282759
v 2.489937 -0.301094 0.222970
v 2.484772 -0.298900 -0.276998
v 2.945937 0.223901 0.220563
v 2.940772 0.226095 -0.279405
v 2.945913 -0.301094 0.218259
v 2.940748 -0.298900 -0.281709
v 3.037908 -0.301094 0.217309
v 3.032743 -0.298900 -0.282660
v 3.037939 0.380899 0.220302
v 3.032774 0.383094 -0.279666
v 2.959943 0.380899 0.221108
v 2.954778 0.383094 -0.278861
v 2.497944 -0.147096 0.223563
v 2.492779 -0.144901 -0.276405
v 2.497968 0.380899 0.225881
v 2.492803 0.383094 -0.274088
v 2.405972 0.380899 0.226831
v 2.400807 0.383094 -0.273137
v 2.405941 -0.301094 0.223838
v 2.400776 -0.298900 -0.276131
v 1.715523 0.386641 0.233989
v 1.710358 0.388835 -0.265979
v 1.664702 0.377168 0.234473
v 1.659537 0.379362 -0.265496
v 1.617748 0.361930 0.234891
v 1.612583 0.364125 -0.265077
v 1.574867 0.341381 0.235244
v 1.569702 0.343575 -0.264725
v 1.536263 0.315970 0.235531
v 1.531098 0.318165 -0.264437
v 1.502142 0.286150 0.235753
v 1.496976 0.288345 -0.264216
v 1.472707 0.252371 0.235909
v 1.467542 0.254566 -0.264060
v 1.448165 0.215086 0.235999
v 1.442999 0.217280 -0.263970
v 1.428719 0.174745 0.236022
v 1.423553 0.176939 -0.263946
v 1.414575 0.131800 0.235980
v 1.409409 0.133994 -0.263988
v 1.405937 0.086702 0.235871
v 1.400772 0.088896 -0.264097
v 1.403011 0.039902 0.235696
v 1.397846 0.042097 -0.264272
v 1.405857 -0.005637 0.235467
v 1.400692 -0.003442 -0.264502
v 1.414298 -0.049912 0.235185
v 1.409132 -0.047717 -0.264783
v 1.428175 -0.092409 0.234855
v 1.423010 -0.090214 -0.265113
v 1.447334 -0.132615 0.234481
v 1.442168 -0.130420 -0.265488
v 1.471617 -0.170015 0.234066
v 1.466452 -0.167820 -0.265903
v 1.500870 -0.204095 0.233614
v 1.495704 -0.201901 -0.266354
v 1.534934 -0.234343 0.233129
v 1.529769 -0.232148 -0.266839
v 1.573655 -0.260243 0.232616
v 1.568489 -0.258048 -0.267353
v 1.616876 -0.281282 0.232077
v 1.611710 -0.279088 -0.267892
v 1.664440 -0.296946 0.231517
v 1.659275 -0.294752 -0.268452
v 1.716192 -0.306722 0.230939
v 1.711027 -0.304527 -0.269029
v 1.771975 -0.310094 0.230348
v 1.766810 -0.307900 -0.269621
v 1.825980 -0.306741 0.229805
v 1.820815 -0.304546 -0.270164
v 1.876364 -0.297016 0.229327
v 1.871198 -0.294821 -0.270642
v 1.922921 -0.281423 0.228914
v 1.917756 -0.279228 -0.271054
v 1.965448 -0.260465 0.228567
v 1.960283 -0.258271 -0.271401
v 2.003740 -0.234647 0.228285
v 1.998575 -0.232452 -0.271684
v 2.037591 -0.204470 0.228068
v 2.032426 -0.202276 -0.271901
v 2.066796 -0.170440 0.227915
v 2.061631 -0.168245 -0.272053
v 2.091151 -0.133059 0.227828
v 2.085986 -0.130864 -0.272141
v 2.110451 -0.092831 0.227805
v 2.105286 -0.090636 -0.272164
v 2.124491 -0.050259 0.227847
v 2.119326 -0.048064 -0.272122
v 2.133066 -0.005847 0.227953
v 2.127901 -0.003652 -0.272016
v 2.135972 0.039902 0.228124
v 2.130807 0.042097 -0.271845
v 2.132993 0.086492 0.228359
v 2.127828 0.088686 -0.271609
v 2.124212 0.131452 0.228647
v 2.119047 0.133647 -0.271321
v 2.109869 0.174323 0.228983
v 2.104704 0.176517 -0.270985
v 2.090204 0.214641 0.229364
v 2.085039 0.216836 -0.270605
v 2.065455 0.251946 0.229783
v 2.060290 0.254141 -0.270186
v 2.035863 0.285775 0.230237
v 2.030698 0.287970 -0.269731
v 2.001667 0.315666 0.230722
v 1.996501 0.317861 -0.269247
v 1.963106 0.341159 0.231232
v 1.957940 0.343353 -0.268737
v 1.920420 0.361790 0.231764
v 1.915254 0.363984 -0.268205
v 1.873848 0.377098 0.232312
v 1.868683 0.379293 -0.267657
v 1.823631 0.386622 0.232872
v 1.818466 0.388816 -0.267096
v 1.770007 0.389899 0.233441
v 1.764842 0.392094 -0.266528
v 1.732607 -0.217825 0.231160
v 1.727442 -0.215630 -0.268809
v 1.697155 -0.211183 0.231555
v 1.691990 -0.208989 -0.268413
v 1.663877 -0.200423 0.231946
v 1.658712 -0.198229 -0.268022
v 1.633026 -0.185799 0.232329
v 1.627860 -0.183605 -0.267639
v 1.604855 -0.167564 0.232700
v 1.599689 -0.165369 -0.267268
v 1.579618 -0.145971 0.233056
v 1.574453 -0.143776 -0.266913
v 1.557569 -0.121274 0.233392
v 1.552404 -0.119079 -0.266577
v 1.538961 -0.093726 0.233705
v 1.533795 -0.091531 -0.266263
v 1.524047 -0.063581 0.233991
v 1.518881 -0.061386 -0.265977
v 1.513081 -0.031092 0.234247
v 1.507915 -0.028898 -0.265721
v 1.506316 0.003487 0.234469
v 1.501150 0.005681 -0.265500
v 1.504006 0.039902 0.234653
v 1.498840 0.042097 -0.265316
v 1.506319 0.076528 0.234790
v 1.501154 0.078723 -0.265179
v 1.513087 0.111244 0.234872
v 1.507922 0.113439 -0.265096
v 1.524056 0.143808 0.234902
v 1.518891 0.146002 -0.265067
v 1.538973 0.173975 0.234880
v 1.533807 0.176170 -0.265089
v 1.557583 0.201504 0.234809
v 1.552418 0.203698 -0.265160
v 1.579635 0.226151 0.234689
v 1.574469 0.228345 -0.265280
v 1.604874 0.247672 0.234523
v 1.599708 0.249867 -0.265446
v 1.633046 0.265826 0.234311
v 1.627881 0.268021 -0.265657
v 1.663899 0.280369 0.234056
v 1.658733 0.282563 -0.265912
v 1.697178 0.291057 0.233759
v 1.692013 0.293252 -0.266209
v 1.732631 0.297649 0.233422
v 1.727465 0.299843 -0.266546
v 1.770003 0.299900 0.233046
v 1.764838 0.302094 -0.266923
v 1.807146 0.297649 0.232652
v 1.801980 0.299843 -0.267316
v 1.842406 0.291057 0.232259
v 1.837241 0.293252 -0.267709
v 1.875528 0.280369 0.231870
v 1.870363 0.282563 -0.268099
v 1.906254 0.265826 0.231489
v 1.901088 0.268021 -0.268480
v 1.934327 0.247672 0.231119
v 1.929161 0.249867 -0.268850
v 1.959490 0.226151 0.230765
v 1.954324 0.228345 -0.269204
v 1.981486 0.201504 0.230429
v 1.976321 0.203698 -0.269539
v 2.000059 0.173975 0.230116
v 1.994894 0.176170 -0.269852
v 2.014952 0.143808 0.229830
v 2.009787 0.146002 -0.270138
v 2.025907 0.111244 0.229574
v 2.020742 0.113439 -0.270395
v 2.032668 0.076528 0.229352
v 2.027503 0.078723 -0.270617
v 2.034977 0.039902 0.229167
v 2.029812 0.042097 -0.270801
v 2.032664 0.003487 0.229031
v 2.027499 0.005681 -0.270937
v 2.025900 -0.031092 0.228949
v 2.020735 -0.028898 -0.271019
v 2.014942 -0.063581 0.228920
v 2.009777 -0.061387 -0.271049
v 2.000047 -0.093726 0.228941
v 1.994882 -0.091531 -0.271027
v 1.981472 -0.121274 0.229012
v 1.976306 -0.119079 -0.270956
v 1.959473 -0.145971 0.229131
v 1.954307 -0.143776 -0.270837
v 1.934308 -0.167564 0.229297
v 1.929142 -0.165369 -0.270672
v 1.906233 -0.185799 0.229507
v 1.901068 -0.183605 -0.270462
v 1.875506 -0.200423 0.229760
v 1.870341 -0.198229 -0.270209
v 1.842384 -0.211183 0.230055
v 1.837218 -0.208989 -0.269914
v 1.807122 -0.217825 0.230390
v 1.801957 -0.215630 -0.269579
v 1.769980 -0.220095 0.230764
v 1.764814 -0.217901 -0.269205
v 0.169061 -0.301094 0.246948
v 0.163896 -0.298900 -0.253021
v 0.169085 0.229900 0.249278
v 0.163920 0.232095 -0.250690
v 0.171085 0.229900 0.249257
v 0.165920 0.232095 -0.250711
v 0.381062 -0.034097 0.245929
v 0.375897 -0.031902 -0.254039
v 0.397061 -0.034097 0.245764
v 0.391896 -0.031902 -0.254205
v 0.607062 0.229900 0.244753
v 0.601897 0.232095 -0.255215
v 0.609062 0.229900 0.244733
v 0.603897 0.232095 -0.255236
v 0.609038 -0.301094 0.242402
v 0.603873 -0.298900 -0.257566
v 0.707033 -0.301094 0.241390
v 0.701867 -0.298900 -0.258579
v 0.707063 0.380899 0.244383
v 0.701898 0.383094 -0.255586
v 0.615068 0.380899 0.245333
v 0.609903 0.383094 -0.254635
v 0.389068 0.100902 0.246439
v 0.383902 0.103096 -0.253529
v 0.162093 0.380899 0.250013
v 0.156927 0.383094 -0.249955
v 0.071097 0.380899 0.250953
v 0.065932 0.383094 -0.249015
v 0.071066 -0.301094 0.247960
v 0.065901 -0.298900 -0.252009
v -0.717891 -0.301094 0.256111
v -0.723056 -0.298900 -0.243858
v -0.626887 -0.100096 0.256053
v -0.632052 -0.097902 -0.243916
v -0.336902 -0.100096 0.253057
v -0.342068 -0.097902 -0.246912
v -0.250916 -0.301094 0.251286
v -0.256081 -0.298900 -0.248682
v -0.150921 -0.301094 0.250253
v -0.156087 -0.298900 -0.249715
v -0.443875 0.384899 0.256291
v -0.449040 0.387094 -0.243678
v -0.512871 0.384899 0.257004
v -0.518036 0.387094 -0.242965
v -0.817886 -0.301094 0.257144
v -0.823051 -0.298900 -0.242825
v -0.586885 -0.012097 0.256026
v -0.592050 -0.009903 -0.243943
v -0.476880 0.234900 0.255974
v -0.482045 0.237095 -0.243995
v -0.374896 -0.012097 0.253836
v -0.380062 -0.009903 -0.246133
v -1.487850 -0.301094 0.264065
v -1.493015 -0.298900 -0.235903
v -1.140853 0.035902 0.261960
v -1.146019 0.038097 -0.238009
v -1.140868 -0.301094 0.260481
v -1.146034 -0.298900 -0.239488
v -1.042874 -0.301094 0.259468
v -1.048039 -0.298900 -0.240500
v -1.042843 0.380899 0.262461
v -1.048008 0.383094 -0.237507
v -1.140838 0.380899 0.263474
v -1.146003 0.383094 -0.236495
v -1.140852 0.068902 0.262105
v -1.146017 0.071097 -0.237864
v -1.427822 0.380899 0.266439
v -1.432988 0.383094 -0.233530
v -1.549816 0.380899 0.267699
v -1.554981 0.383094 -0.232269
v -1.252846 0.057902 0.263213
v -1.258012 0.060097 -0.236755
v -1.622843 -0.301094 0.265460
v -1.628008 -0.298900 -0.234508
v -1.946799 0.292900 0.271414
v -1.951964 0.295094 -0.228554
v -1.946808 0.086902 0.270510
v -1.951974 0.089096 -0.229458
v -2.225793 0.086902 0.273392
v -2.230958 0.089096 -0.226576
v -2.225797 -0.001097 0.273006
v -2.230963 0.001097 -0.226962
v -1.946812 -0.001097 0.270124
v -1.951977 0.001097 -0.229845
v -1.946822 -0.213095 0.269193
v -1.951987 -0.210901 -0.230775
v -2.244806 -0.213095 0.272272
v -2.249971 -0.210901 -0.227697
v -2.244810 -0.301094 0.271886
v -2.249975 -0.298900 -0.228083
v -1.848831 -0.301094 0.267795
v -1.853996 -0.298900 -0.232174
v -1.848800 0.380899 0.270788
v -1.853965 0.383094 -0.229181
v -2.235779 0.380899 0.274786
v -2.240944 0.383094 -0.225183
v -2.235783 0.292900 0.274400
v -2.240948 0.295094 -0.225569
v -3.596738 -0.307094 0.285826
v -3.601903 -0.304900 -0.214142
v -3.372725 0.250900 0.285961
v -3.377890 0.253095 -0.214007
v -3.146762 -0.307094 0.281178
v -3.151927 -0.304900 -0.218791
v -3.127763 -0.307094 0.280981
v -3.132928 -0.304900 -0.218987
v -2.851747 0.380899 0.281150
v -2.856912 0.383094 -0.218819
v -2.949741 0.380899 0.282162
v -2.954906 0.383094 -0.217806
v -3.137753 -0.089096 0.282041
v -3.142918 -0.086902 -0.217927
v -3.326721 0.380899 0.286057
v -3.331886 0.383094 -0.213912
v -3.419716 0.380899 0.287017
v -3.424881 0.383094 -0.212951
v -3.609728 -0.089096 0.286917
v -3.614893 -0.086902 -0.213051
v -3.795696 0.380899 0.290902
v -3.800861 0.383094 -0.209067
v -3.892691 0.380899 0.291904
v -3.897856 0.383094 -0.208065
v -3.615737 -0.307094 0.286023
v -3.620902 -0.304900 -0.213946
v -4.788675 -0.307094 0.298141
v -4.793840 -0.304900 -0.201828
v -4.564662 0.250900 0.298275
v -4.569827 0.253095 -0.201693
v -4.338699 -0.307094 0.293492
v -4.343864 -0.304900 -0.206477
v -4.319700 -0.307094 0.293295
v -4.324865 -0.304900 -0.206673
v -4.043684 0.380899 0.293464
v -4.048849 0.383094 -0.206505
v -4.141678 0.380899 0.294476
v -4.146843 0.383094 -0.205492
v -4.329690 -0.089096 0.294356
v -4.334855 -0.086902 -0.205613
v -4.518658 0.380899 0.298371
v -4.523823 0.383094 -0.201598
v -4.611653 0.380899 0.299332
v -4.616818 0.383094 -0.200637
v -4.801664 -0.089096 0.299232
v -4.806829 -0.086902 -0.200737
v -4.987634 0.380899 0.303216
v -4.992799 0.383094 -0.196753
v -5.084628 0.380899 0.304218
v -5.089793 0.383094 -0.195751
v -4.807674 -0.307094 0.298337
v -4.812839 -0.304900 -0.201632
v -5.980612 -0.307094 0.310455
v -5.985777 -0.304900 -0.189514
v -5.756598 0.250900 0.310590
v -5.761764 0.253095 -0.189379
v -5.530636 -0.307094 0.305806
v -5.535801 -0.304900 -0.194163
v -5.511637 -0.307094 0.305610
v -5.516802 -0.304900 -0.194359
v -5.235620 0.380899 0.305778
v -5.240786 0.383094 -0.194191
v -5.333615 0.380899 0.306790
v -5.338780 0.383094 -0.193178
v -5.521626 -0.089096 0.306670
v -5.526792 -0.086902 -0.193299
v -5.710595 0.380899 0.310685
v -5.715760 0.383094 -0.189284
v -5.803590 0.380899 0.311646
v -5.808755 0.383094 -0.188323
v -5.993601 -0.089096 0.311546
v -5.998766 -0.086902 -0.188423
v -6.179570 0.380899 0.315530
v -6.184735 0.383094 -0.184438
v -6.276565 0.380899 0.316532
v -6.281730 0.383094 -0.183436
v -5.999610 -0.307094 0.310651
v -6.004776 -0.304900 -0.189318
vn -0.0103 0.0044 -0.9999
vn 0.0103 -0.0044 0.9999
vn -0.1216 0.9926 0.0056
vn -0.2464 0.9691 0.0068
vn -0.3712 0.9285 0.0079
vn -0.4920 0.8705 0.0089
vn -0.6053 0.7960 0.0097
vn -0.7075 0.7066 0.0104
vn -0.7963 0.6047 0.0109
vn -0.8699 0.4931 0.0112
vn -0.9272 0.3743 0.0112
vn -0.9679 0.2510 0.0111
vn -0.9920 0.1255 0.0108
vn -0.9999 -0.0000 0.0103
vn -0.9921 -0.1251 0.0097
vn -0.9684 -0.2494 0.0089
vn -0.9286 -0.3711 0.0080
vn -0.8726 -0.4885 0.0069
vn -0.8005 -0.5993 0.0056
vn -0.7130 -0.7012 0.0043
vn -0.6114 -0.7913 0.0028
vn -0.4980 -0.8672 0.0013
vn -0.3761 -0.9266 -0.0002
vn -0.2498 -0.9683 -0.0017
vn -0.1233 -0.9924 -0.0031
vn 0.0008 -1.0000 -0.0044
vn 0.1260 -0.9920 -0.0057
vn 0.2540 -0.9672 -0.0069
vn 0.3806 -0.9247 -0.0080
vn 0.5016 -0.8650 -0.0090
vn 0.6136 -0.7896 -0.0098
vn 0.7137 -0.7004 -0.0104
vn 0.8000 -0.5999 -0.0109
vn 0.8715 -0.4902 -0.0112
vn 0.9275 -0.3736 -0.0112
vn 0.9677 -0.2519 -0.0111
vn 0.9919 -0.1267 -0.0108
vn 0.9999 0.0003 -0.0103
vn 0.9917 0.1280 -0.0097
vn 0.9669 0.2551 -0.0089
vn 0.9255 0.3787 -0.0079
vn 0.8679 0.4967 -0.0068
vn 0.7947 0.6070 -0.0055
vn 0.7069 0.7073 -0.0042
vn 0.6061 0.7954 -0.0028
vn 0.4944 0.8692 -0.0013
vn 0.3745 0.9272 0.0002
vn 0.2498 0.9683 0.0017
vn 0.1239 0.9923 0.0031
vn 0.0007 1.0000 0.0044
vn 0.1227 0.9924 0.0031
vn 0.2464 0.9692 0.0017
vn 0.3688 0.9295 0.0003
vn 0.4869 0.8734 -0.0012
vn 0.5981 0.8014 -0.0027
vn 0.6996 0.7145 -0.0041
vn 0.7891 0.6143 -0.0055
vn 0.8644 0.5028 -0.0067
vn 0.9239 0.3825 -0.0079
vn 0.9665 0.2565 -0.0089
vn 0.9999 0.0002 -0.0103
vn 0.9918 -0.1274 -0.0108
vn 0.9667 -0.2558 -0.0111
vn 0.9241 -0.3821 -0.0112
vn 0.8643 -0.5028 -0.0111
vn 0.7886 -0.6148 -0.0108
vn 0.6986 -0.7155 -0.0104
vn 0.5965 -0.8025 -0.0097
vn 0.4850 -0.8745 -0.0088
vn 0.3668 -0.9303 -0.0079
vn 0.2447 -0.9696 -0.0068
vn 0.1216 -0.9926 -0.0056
vn -0.0002 -1.0000 -0.0044
vn -0.1224 -0.9925 -0.0031
vn -0.2459 -0.9693 -0.0017
vn -0.3682 -0.9297 -0.0003
vn -0.4865 -0.8737 0.0012
vn -0.5978 -0.8016 0.0027
vn -0.6996 -0.7145 0.0041
vn -0.7893 -0.6140 0.0055
vn -0.8648 -0.5022 0.0067
vn -0.9243 -0.3817 0.0079
vn -0.9667 -0.2556 0.0089
vn -0.9918 -0.1274 0.0097
vn -0.9999 0.0002 0.0103
vn -0.9917 0.1279 0.0108
vn -0.9665 0.2563 0.0111
vn -0.9240 0.3821 0.0112
vn -0.8647 0.5021 0.0111
vn -0.7896 0.6135 0.0109
vn -0.7005 0.7136 0.0104
vn -0.5992 0.8005 0.0097
vn -0.4882 0.8727 0.0089
vn -0.3701 0.9290 0.0079
vn -0.2475 0.9689 0.0068
vn -0.1232 0.9924 0.0056
vn -0.0001 1.0000 0.0044
vn 0.7070 -0.7071 -0.0104
vn -0.4345 -0.9007 0.0005
vn 0.4344 -0.9007 -0.0084
vn -0.7071 -0.7071 0.0042
vn 0.7071 0.7071 -0.0042
vn -0.4312 0.9022 0.0084
vn -0.0010 1.0000 0.0044
vn 0.4303 0.9027 -0.0005
vn -0.7070 0.7071 0.0104
vn 0.5419 -0.8404 -0.0093
vn -0.5508 -0.8347 0.0020
vn 0.8344 -0.5510 -0.0110
vn 0.5510 0.8345 -0.0020
vn -0.5448 0.8385 0.0093
vn -0.8385 -0.5449 0.0063
vn 0.8387 0.5446 -0.0063
vn -0.0137 -0.9999 -0.0042
vn -0.8311 0.5560 0.0110
vn 0.4148 -0.9099 -0.0083
vn -0.3500 -0.9367 -0.0005
vn -0.4132 0.9106 0.0083
vn 0.3518 0.9361 0.0005
vn -0.1217 0.9926 0.0056
vn 0.9917 0.1281 -0.0097
vn -0.8647 -0.5022 0.0067
vn 0.3759 -0.9266 -0.0080
vn -0.3894 -0.9210 -0.0000
vn -0.3633 0.9317 0.0078
vn 0.4019 0.9157 -0.0001
vn -0.9156 0.4020 0.0112
vn -0.9995 0.0285 0.0105
vn -0.9267 -0.3757 0.0079
vn 0.5600 -0.8284 -0.0094
vn 0.0015 -1.0000 -0.0044
vn -0.5588 -0.8293 0.0021
vn 0.5601 -0.8283 -0.0094
vn 0.8283 0.5602 -0.0061
vn -0.5606 0.8281 0.0094
vn -0.0009 1.0000 0.0044
vn 0.5599 0.8286 -0.0021
vn -0.5590 0.8291 0.0094
vn 0.0037 1.0000 0.0044
vn 0.5622 0.8270 -0.0022
vn -0.8286 0.5597 0.0110
vn -0.5597 -0.8287 0.0021
vt 0.250000 0.000000
vt 0.416667 0.000000
vt 0.333333 0.000000
vt 0.500000 0.000000
vt 0.666667 0.000000
vt 0.583333 0.000000
vt 0.083333 0.000000
vt 0.750000 0.000000
vt 0.916667 0.000000
vt 0.833333 0.000000
vt 1.000000 0.000000
vt 0.166667 0.000000
vt 0.000000 0.000000
vt 0.727273 0.000000
vt 0.818182 0.000000
vt 0.909091 0.000000
vt 0.090909 0.000000
vt 0.363636 0.000000
vt 0.181818 0.000000
vt 0.272727 0.000000
vt 0.454545 0.000000
vt 0.545455 0.000000
vt 0.636364 0.000000
vt 0.300000 0.000000
vt 0.400000 0.000000
vt 0.600000 0.000000
vt 0.800000 0.000000
vt 0.700000 0.000000
vt 0.900000 0.000000
vt 0.100000 0.000000
vt 0.200000 0.000000
vt 0.571429 0.000000
vt 0.714286 0.000000
vt 0.642857 0.000000
vt 0.428571 0.000000
vt 0.357143 0.000000
vt 0.785714 0.000000
vt 0.928571 0.000000
vt 0.857143 0.000000
vt 0.142857 0.000000
vt 0.071429 0.000000
vt 0.285714 0.000000
vt 0.214286 0.000000
vt 0.484211 0.000000
vt 0.494737 0.000000
vt 0.010526 0.000000
vt 0.473684 0.000000
vt 0.021053 0.000000
vt 0.463158 0.000000
vt 0.031579 0.000000
vt 0.452632 0.000000
vt 0.042105 0.000000
vt 0.442105 0.000000
vt 0.052632 0.000000
vt 0.431579 0.000000
vt 0.747368 0.000000
vt 0.757895 0.000000
vt 0.736842 0.000000
vt 0.768421 0.000000
vt 0.726316 0.000000
vt 0.778947 0.000000
vt 0.715789 0.000000
vt 0.063158 0.000000
vt 0.421053 0.000000
vt 0.789474 0.000000
vt 0.705263 0.000000
vt 0.694737 0.000000
vt 0.073684 0.000000
vt 0.410526 0.000000
vt 0.810526 0.000000
vt 0.684211 0.000000
vt 0.821053 0.000000
vt 0.673684 0.000000
vt 0.084211 0.000000
vt 0.831579 0.000000
vt 0.663158 0.000000
vt 0.094737 0.000000
vt 0.389474 0.000000
vt 0.842105 0.000000
vt 0.652632 0.000000
vt 0.642105 0.000000
vt 0.852632 0.000000
vt 0.105263 0.000000
vt 0.378947 0.000000
vt 0.631579 0.000000
vt 0.863158 0.000000
vt 0.115789 0.000000
vt 0.368421 0.000000
vt 0.621053 0.000000
vt 0.873684 0.000000
vt 0.357895 0.000000
vt 0.884211 0.000000
vt 0.610526 0.000000
vt 0.126316 0.000000
vt 0.894737 0.000000
vt 0.136842 0.000000
vt 0.347368 0.000000
vt 0.589474 0.000000
vt 0.905263 0.000000
vt 0.147368 0.000000
vt 0.336842 0.000000
vt 0.578947 0.000000
vt 0.915789 0.000000
vt 0.157895 0.000000
vt 0.326316 0.000000
vt 0.568421 0.000000
vt 0.926316 0.000000
vt 0.557895 0.000000
vt 0.936842 0.000000
vt 0.168421 0.000000
vt 0.315789 0.000000
vt 0.547368 0.000000
vt 0.947368 0.000000
vt 0.536842 0.000000
vt 0.957895 0.000000
vt 0.178947 0.000000
vt 0.305263 0.000000
vt 0.526316 0.000000
vt 0.968421 0.000000
vt 0.515789 0.000000
vt 0.978947 0.000000
vt 0.189474 0.000000
vt 0.294737 0.000000
vt 0.505263 0.000000
vt 0.989474 0.000000
vt 0.284211 0.000000
vt 0.210526 0.000000
vt 0.273684 0.000000
vt 0.221053 0.000000
vt 0.263158 0.000000
vt 0.231579 0.000000
vt 0.252632 0.000000
vt 0.242105 0.000000
vt 0.555556 0.000000
vt 0.444444 0.000000
vt 0.111111 0.000000
vt 0.888889 0.000000
vt 0.777778 0.000000
vt 0.222222 0.000000
vt 0.000000 1.000000
vt 0.020833 1.000000
vt 0.020833 0.000000
vt 0.041667 1.000000
vt 0.041667 0.000000
vt 0.062500 1.000000
vt 0.062500 0.000000
vt 0.083333 1.000000
vt 0.104167 1.000000
vt 0.104167 0.000000
vt 0.125000 1.000000
vt 0.125000 0.000000
vt 0.145833 1.000000
vt 0.145833 0.000000
vt 0.166667 1.000000
vt 0.187500 1.000000
vt 0.187500 0.000000
vt 0.208333 1.000000
vt 0.208333 0.000000
vt 0.229167 1.000000
vt 0.229167 0.000000
vt 0.250000 1.000000
vt 0.270833 1.000000
vt 0.270833 0.000000
vt 0.291667 1.000000
vt 0.291667 0.000000
vt 0.312500 1.000000
vt 0.312500 0.000000
vt 0.333333 1.000000
vt 0.354167 1.000000
vt 0.354167 0.000000
vt 0.375000 1.000000
vt 0.375000 0.000000
vt 0.395833 1.000000
vt 0.395833 0.000000
vt 0.416667 1.000000
vt 0.437500 1.000000
vt 0.437500 0.000000
vt 0.458333 1.000000
vt 0.458333 0.000000
vt 0.479167 1.000000
vt 0.479167 0.000000
vt 0.500000 1.000000
vt 0.520833 1.000000
vt 0.520833 0.000000
vt 0.541667 1.000000
vt 0.541667 0.000000
vt 0.562500 1.000000
vt 0.562500 0.000000
vt 0.583333 1.000000
vt 0.604167 1.000000
vt 0.604167 0.000000
vt 0.625000 1.000000
vt 0.625000 0.000000
vt 0.645833 1.000000
vt 0.645833 0.000000
vt 0.666667 1.000000
vt 0.687500 1.000000
vt 0.687500 0.000000
vt 0.708333 1.000000
vt 0.708333 0.000000
vt 0.729167 1.000000
vt 0.729167 0.000000
vt 0.750000 1.000000
vt 0.770833 1.000000
vt 0.770833 0.000000
vt 0.791667 1.000000
vt 0.791667 0.000000
vt 0.812500 1.000000
vt 0.812500 0.000000
vt 0.833333 1.000000
vt 0.854167 1.000000
vt 0.854167 0.000000
vt 0.875000 1.000000
vt 0.875000 0.000000
vt 0.895833 1.000000
vt 0.895833 0.000000
vt 0.916667 1.000000
vt 0.937500 1.000000
vt 0.937500 0.000000
vt 0.958333 1.000000
vt 0.958333 0.000000
vt 0.979167 1.000000
vt 0.979167 0.000000
vt 1.000000 1.000000
vt 0.066667 1.000000
vt 0.066667 0.000000
vt 0.133333 1.000000
vt 0.133333 0.000000
vt 0.200000 1.000000
vt 0.266667 1.000000
vt 0.266667 0.000000
vt 0.400000 1.000000
vt 0.466667 1.000000
vt 0.466667 0.000000
vt 0.533333 1.000000
vt 0.533333 0.000000
vt 0.600000 1.000000
vt 0.733333 1.000000
vt 0.733333 0.000000
vt 0.800000 1.000000
vt 0.866667 1.000000
vt 0.866667 0.000000
vt 0.933333 1.000000
vt 0.933333 0.000000
vt 0.100000 1.000000
vt 0.300000 1.000000
vt 0.700000 1.000000
vt 0.900000 1.000000
vt 0.090909 1.000000
vt 0.181818 1.000000
vt 0.272727 1.000000
vt 0.363636 1.000000
vt 0.454545 1.000000
vt 0.545455 1.000000
vt 0.636364 1.000000
vt 0.727273 1.000000
vt 0.818182 1.000000
vt 0.909091 1.000000
vt 0.076923 1.000000
vt 0.076923 0.000000
vt 0.153846 1.000000
vt 0.153846 0.000000
vt 0.230769 1.000000
vt 0.230769 0.000000
vt 0.307692 1.000000
vt 0.307692 0.000000
vt 0.384615 1.000000
vt 0.384615 0.000000
vt 0.461538 1.000000
vt 0.461538 0.000000
vt 0.538462 1.000000
vt 0.538462 0.000000
vt 0.615385 1.000000
vt 0.615385 0.000000
vt 0.692308 1.000000
vt 0.692308 0.000000
vt 0.769231 1.000000
vt 0.769231 0.000000
vt 0.846154 1.000000
vt 0.846154 0.000000
vt 0.923077 1.000000
vt 0.923077 0.000000
s 0
f 4/1/1 6/2/1 5/3/1
f 4/1/1 7/4/1 6/2/1
f 7/4/1 9/5/1 8/6/1
f 7/4/1 2/7/1 9/5/1
f 2/7/1 10/8/1 9/5/1
f 10/8/1 12/9/1 11/10/1
f 10/8/1 13/11/1 12/9/1
f 7/4/1 3/12/1 2/7/1
f 1/13/1 10/8/1 2/7/1
f 4/1/1 3/12/1 7/4/1
f 1/13/1 13/11/1 10/8/1
f 17/1/1 19/2/1 18/3/1
f 17/1/1 20/4/1 19/2/1
f 20/4/1 22/5/1 21/6/1
f 20/4/1 15/7/1 22/5/1
f 15/7/1 23/8/1 22/5/1
f 23/8/1 25/9/1 24/10/1
f 23/8/1 26/11/1 25/9/1
f 20/4/1 16/12/1 15/7/1
f 14/13/1 23/8/1 15/7/1
f 17/1/1 16/12/1 20/4/1
f 14/13/1 26/11/1 23/8/1
f 30/1/1 32/2/1 31/3/1
f 30/1/1 33/4/1 32/2/1
f 33/4/1 35/5/1 34/6/1
f 33/4/1 28/7/1 35/5/1
f 28/7/1 36/8/1 35/5/1
f 36/8/1 38/9/1 37/10/1
f 36/8/1 39/11/1 38/9/1
f 33/4/1 29/12/1 28/7/1
f 27/13/1 36/8/1 28/7/1
f 30/1/1 29/12/1 33/4/1
f 27/13/1 39/11/1 36/8/1
f 48/14/1 40/13/1 49/15/1
f 40/13/1 50/16/1 49/15/1
f 40/13/1 51/11/1 50/16/1
f 48/14/1 41/17/1 40/13/1
f 48/14/1 44/18/1 41/17/1
f 44/18/1 42/19/1 41/17/1
f 44/18/1 43/20/1 42/19/1
f 48/14/1 45/21/1 44/18/1
f 48/14/1 46/22/1 45/21/1
f 48/14/1 47/23/1 46/22/1
f 55/24/1 57/4/1 56/25/1
f 55/24/1 58/26/1 57/4/1
f 58/26/1 60/27/1 59/28/1
f 58/26/1 61/29/1 60/27/1
f 55/24/1 53/30/1 58/26/1
f 53/30/1 61/29/1 58/26/1
f 53/30/1 62/11/1 61/29/1
f 55/24/1 54/31/1 53/30/1
f 52/13/1 62/11/1 53/30/1
f 67/25/1 69/26/1 68/4/1
f 67/25/1 72/29/1 69/26/1
f 72/29/1 70/28/1 69/26/1
f 67/25/1 73/11/1 72/29/1
f 71/27/1 70/28/1 72/29/1
f 67/25/1 65/31/1 73/11/1
f 65/31/1 71/27/1 73/11/1
f 65/31/1 64/30/1 71/27/1
f 64/30/1 70/28/1 71/27/1
f 67/25/1 66/24/1 65/31/1
f 63/13/1 70/28/1 64/30/1
f 82/32/1 84/33/1 83/34/1
f 82/32/1 80/35/1 84/33/1
f 80/35/1 79/36/1 84/33/1
f 79/36/1 85/37/1 84/33/1
f 85/37/1 87/38/1 86/39/1
f 85/37/1 76/40/1 87/38/1
f 76/40/1 75/41/1 87/38/1
f 75/41/1 88/11/1 87/38/1
f 82/32/1 81/4/1 80/35/1
f 78/42/1 85/37/1 79/36/1
f 85/37/1 77/43/1 76/40/1
f 74/13/1 88/11/1 75/41/1
f 78/42/1 77/43/1 85/37/1
f 135/44/1 89/13/1 136/45/1
f 135/44/1 90/46/1 89/13/1
f 134/47/1 90/46/1 135/44/1
f 134/47/1 91/48/1 90/46/1
f 133/49/1 91/48/1 134/47/1
f 133/49/1 92/50/1 91/48/1
f 132/51/1 92/50/1 133/49/1
f 132/51/1 93/52/1 92/50/1
f 131/53/1 93/52/1 132/51/1
f 131/53/1 94/54/1 93/52/1
f 130/55/1 160/56/1 131/53/1
f 160/56/1 94/54/1 131/53/1
f 130/55/1 161/57/1 160/56/1
f 159/58/1 94/54/1 160/56/1
f 130/55/1 162/59/1 161/57/1
f 158/60/1 94/54/1 159/58/1
f 130/55/1 163/61/1 162/59/1
f 157/62/1 94/54/1 158/60/1
f 157/62/1 95/63/1 94/54/1
f 129/64/1 163/61/1 130/55/1
f 129/64/1 164/65/1 163/61/1
f 156/66/1 95/63/1 157/62/1
f 129/64/1 165/27/1 164/65/1
f 155/67/1 95/63/1 156/66/1
f 155/67/1 96/68/1 95/63/1
f 128/69/1 165/27/1 129/64/1
f 128/69/1 166/70/1 165/27/1
f 154/71/1 96/68/1 155/67/1
f 128/69/1 167/72/1 166/70/1
f 153/73/1 96/68/1 154/71/1
f 153/73/1 97/74/1 96/68/1
f 127/25/1 167/72/1 128/69/1
f 127/25/1 168/75/1 167/72/1
f 152/76/1 97/74/1 153/73/1
f 152/76/1 98/77/1 97/74/1
f 126/78/1 168/75/1 127/25/1
f 126/78/1 169/79/1 168/75/1
f 151/80/1 98/77/1 152/76/1
f 150/81/1 98/77/1 151/80/1
f 126/78/1 170/82/1 169/79/1
f 150/81/1 99/83/1 98/77/1
f 125/84/1 170/82/1 126/78/1
f 149/85/1 99/83/1 150/81/1
f 125/84/1 171/86/1 170/82/1
f 149/85/1 100/87/1 99/83/1
f 124/88/1 171/86/1 125/84/1
f 148/89/1 100/87/1 149/85/1
f 124/88/1 172/90/1 171/86/1
f 123/91/1 172/90/1 124/88/1
f 123/91/1 173/92/1 172/90/1
f 147/93/1 100/87/1 148/89/1
f 147/93/1 101/94/1 100/87/1
f 146/26/1 101/94/1 147/93/1
f 123/91/1 174/95/1 173/92/1
f 146/26/1 102/96/1 101/94/1
f 122/97/1 174/95/1 123/91/1
f 145/98/1 102/96/1 146/26/1
f 122/97/1 175/99/1 174/95/1
f 145/98/1 103/100/1 102/96/1
f 121/101/1 175/99/1 122/97/1
f 144/102/1 103/100/1 145/98/1
f 121/101/1 176/103/1 175/99/1
f 144/102/1 104/104/1 103/100/1
f 120/105/1 176/103/1 121/101/1
f 143/106/1 104/104/1 144/102/1
f 120/105/1 177/107/1 176/103/1
f 142/108/1 104/104/1 143/106/1
f 120/105/1 178/109/1 177/107/1
f 142/108/1 105/110/1 104/104/1
f 119/111/1 178/109/1 120/105/1
f 141/112/1 105/110/1 142/108/1
f 119/111/1 179/113/1 178/109/1
f 140/114/1 105/110/1 141/112/1
f 119/111/1 180/115/1 179/113/1
f 140/114/1 106/116/1 105/110/1
f 118/117/1 180/115/1 119/111/1
f 139/118/1 106/116/1 140/114/1
f 118/117/1 181/119/1 180/115/1
f 138/120/1 106/116/1 139/118/1
f 118/117/1 182/121/1 181/119/1
f 138/120/1 107/122/1 106/116/1
f 117/123/1 182/121/1 118/117/1
f 137/124/1 107/122/1 138/120/1
f 117/123/1 183/125/1 182/121/1
f 184/11/1 107/122/1 137/124/1
f 117/123/1 184/11/1 183/125/1
f 117/123/1 107/122/1 184/11/1
f 117/123/1 108/31/1 107/122/1
f 116/126/1 108/31/1 117/123/1
f 116/126/1 109/127/1 108/31/1
f 115/128/1 109/127/1 116/126/1
f 115/128/1 110/129/1 109/127/1
f 114/130/1 110/129/1 115/128/1
f 114/130/1 111/131/1 110/129/1
f 113/132/1 111/131/1 114/130/1
f 113/132/1 112/133/1 111/131/1
f 188/3/1 190/134/1 189/135/1
f 188/3/1 186/136/1 190/134/1
f 186/136/1 191/5/1 190/134/1
f 191/5/1 193/137/1 192/138/1
f 191/5/1 194/11/1 193/137/1
f 188/3/1 187/139/1 186/136/1
f 185/13/1 191/5/1 186/136/1
f 185/13/1 194/11/1 191/5/1
f 203/14/1 195/13/1 204/15/1
f 195/13/1 205/16/1 204/15/1
f 195/13/1 206/11/1 205/16/1
f 203/14/1 196/17/1 195/13/1
f 203/14/1 199/18/1 196/17/1
f 199/18/1 197/19/1 196/17/1
f 199/18/1 198/20/1 197/19/1
f 203/14/1 200/21/1 199/18/1
f 203/14/1 201/22/1 200/21/1
f 203/14/1 202/23/1 201/22/1
f 211/25/1 213/26/1 212/4/1
f 211/25/1 216/29/1 213/26/1
f 216/29/1 214/28/1 213/26/1
f 211/25/1 217/11/1 216/29/1
f 215/27/1 214/28/1 216/29/1
f 211/25/1 209/31/1 217/11/1
f 209/31/1 215/27/1 217/11/1
f 209/31/1 208/30/1 215/27/1
f 208/30/1 214/28/1 215/27/1
f 211/25/1 210/24/1 209/31/1
f 207/13/1 214/28/1 208/30/1
f 226/32/1 228/33/1 227/34/1
f 226/32/1 224/35/1 228/33/1
f 224/35/1 223/36/1 228/33/1
f 223/36/1 229/37/1 228/33/1
f 229/37/1 231/38/1 230/39/1
f 229/37/1 220/40/1 231/38/1
f 220/40/1 219/41/1 231/38/1
f 219/41/1 232/11/1 231/38/1
f 226/32/1 225/4/1 224/35/1
f 222/42/1 229/37/1 223/36/1
f 229/37/1 221/43/1 220/40/1
f 218/13/1 232/11/1 219/41/1
f 222/42/1 221/43/1 229/37/1
f 279/44/1 233/13/1 280/45/1
f 279/44/1 234/46/1 233/13/1
f 278/47/1 234/46/1 279/44/1
f 278/47/1 235/48/1 234/46/1
f 277/49/1 235/48/1 278/47/1
f 277/49/1 236/50/1 235/48/1
f 276/51/1 236/50/1 277/49/1
f 276/51/1 237/52/1 236/50/1
f 275/53/1 237/52/1 276/51/1
f 275/53/1 238/54/1 237/52/1
f 274/55/1 304/56/1 275/53/1
f 304/56/1 238/54/1 275/53/1
f 274/55/1 305/57/1 304/56/1
f 303/58/1 238/54/1 304/56/1
f 274/55/1 306/59/1 305/57/1
f 302/60/1 238/54/1 303/58/1
f 274/55/1 307/61/1 306/59/1
f 301/62/1 238/54/1 302/60/1
f 301/62/1 239/63/1 238/54/1
f 273/64/1 307/61/1 274/55/1
f 273/64/1 308/65/1 307/61/1
f 300/66/1 239/63/1 301/62/1
f 273/64/1 309/27/1 308/65/1
f 299/67/1 239/63/1 300/66/1
f 299/67/1 240/68/1 239/63/1
f 272/69/1 309/27/1 273/64/1
f 272/69/1 310/70/1 309/27/1
f 298/71/1 240/68/1 299/67/1
f 272/69/1 311/72/1 310/70/1
f 297/73/1 240/68/1 298/71/1
f 297/73/1 241/74/1 240/68/1
f 271/25/1 311/72/1 272/69/1
f 271/25/1 312/75/1 311/72/1
f 296/76/1 241/74/1 297/73/1
f 296/76/1 242/77/1 241/74/1
f 270/78/1 312/75/1 271/25/1
f 270/78/1 313/79/1 312/75/1
f 295/80/1 242/77/1 296/76/1
f 294/81/1 242/77/1 295/80/1
f 270/78/1 314/82/1 313/79/1
f 294/81/1 243/83/1 242/77/1
f 269/84/1 314/82/1 270/78/1
f 293/85/1 243/83/1 294/81/1
f 269/84/1 315/86/1 314/82/1
f 293/85/1 244/87/1 243/83/1
f 268/88/1 315/86/1 269/84/1
f 292/89/1 244/87/1 293/85/1
f 268/88/1 316/90/1 315/86/1
f 267/91/1 316/90/1 268/88/1
f 267/91/1 317/92/1 316/90/1
f 291/93/1 244/87/1 292/89/1
f 291/93/1 245/94/1 244/87/1
f 290/26/1 245/94/1 291/93/1
f 267/91/1 318/95/1 317/92/1
f 290/26/1 246/96/1 245/94/1
f 266/97/1 318/95/1 267/91/1
f 289/98/1 246/96/1 290/26/1
f 266/97/1 319/99/1 318/95/1
f 289/98/1 247/100/1 246/96/1
f 265/101/1 319/99/1 266/97/1
f 288/102/1 247/100/1 289/98/1
f 265/101/1 320/103/1 319/99/1
f 288/102/1 248/104/1 247/100/1
f 264/105/1 320/103/1 265/101/1
f 287/106/1 248/104/1 288/102/1
f 264/105/1 321/107/1 320/103/1
f 286/108/1 248/104/1 287/106/1
f 264/105/1 322/109/1 321/107/1
f 286/108/1 249/110/1 248/104/1
f 263/111/1 322/109/1 264/105/1
f 285/112/1 249/110/1 286/108/1
f 263/111/1 323/113/1 322/109/1
f 284/114/1 249/110/1 285/112/1
f 263/111/1 324/115/1 323/113/1
f 284/114/1 250/116/1 249/110/1
f 262/117/1 324/115/1 263/111/1
f 283/118/1 250/116/1 284/114/1
f 262/117/1 325/119/1 324/115/1
f 282/120/1 250/116/1 283/118/1
f 262/117/1 326/121/1 325/119/1
f 282/120/1 251/122/1 250/116/1
f 261/123/1 326/121/1 262/117/1
f 281/124/1 251/122/1 282/120/1
f 261/123/1 327/125/1 326/121/1
f 328/11/1 251/122/1 281/124/1
f 261/123/1 328/11/1 327/125/1
f 261/123/1 251/122/1 328/11/1
f 261/123/1 252/31/1 251/122/1
f 260/126/1 252/31/1 261/123/1
f 260/126/1 253/127/1 252/31/1
f 259/128/1 253/127/1 260/126/1
f 259/128/1 254/129/1 253/127/1
f 258/130/1 254/129/1 259/128/1
f 258/130/1 255/131/1 254/129/1
f 257/132/1 255/131/1 258/130/1
f 257/132/1 256/133/1 255/131/1
f 332/1/2 333/3/2 334/2/2
f 332/1/2 334/2/2 335/4/2
f 335/4/2 336/6/2 337/5/2
f 335/4/2 337/5/2 330/7/2
f 330/7/2 337/5/2 338/8/2
f 338/8/2 339/10/2 340/9/2
f 338/8/2 340/9/2 341/11/2
f 335/4/2 330/7/2 331/12/2
f 329/13/2 330/7/2 338/8/2
f 332/1/2 335/4/2 331/12/2
f 329/13/2 338/8/2 341/11/2
f 345/1/2 346/3/2 347/2/2
f 345/1/2 347/2/2 348/4/2
f 348/4/2 349/6/2 350/5/2
f 348/4/2 350/5/2 343/7/2
f 343/7/2 350/5/2 351/8/2
f 351/8/2 352/10/2 353/9/2
f 351/8/2 353/9/2 354/11/2
f 348/4/2 343/7/2 344/12/2
f 342/13/2 343/7/2 351/8/2
f 345/1/2 348/4/2 344/12/2
f 342/13/2 351/8/2 354/11/2
f 358/1/2 359/3/2 360/2/2
f 358/1/2 360/2/2 361/4/2
f 361/4/2 362/6/2 363/5/2
f 361/4/2 363/5/2 356/7/2
f 356/7/2 363/5/2 364/8/2
f 364/8/2 365/10/2 366/9/2
f 364/8/2 366/9/2 367/11/2
f 361/4/2 356/7/2 357/12/2
f 355/13/2 356/7/2 364/8/2
f 358/1/2 361/4/2 357/12/2
f 355/13/2 364/8/2 367/11/2
f 376/14/2 377/15/2 368/13/2
f 368/13/2 377/15/2 378/16/2
f 368/13/2 378/16/2 379/11/2
f 376/14/2 368/13/2 369/17/2
f 376/14/2 369/17/2 372/18/2
f 372/18/2 369/17/2 370/19/2
f 372/18/2 370/19/2 371/20/2
f 376/14/2 372/18/2 373/21/2
f 376/14/2 373/21/2 374/22/2
f 376/14/2 374/22/2 375/23/2
f 383/24/2 384/25/2 385/4/2
f 383/24/2 385/4/2 386/26/2
f 386/26/2 387/28/2 388/27/2
f 386/26/2 388/27/2 389/29/2
f 383/24/2 386/26/2 381/30/2
f 381/30/2 386/26/2 389/29/2
f 381/30/2 389/29/2 390/11/2
f 383/24/2 381/30/2 382/31/2
f 380/13/2 381/30/2 390/11/2
f 395/25/2 396/4/2 397/26/2
f 395/25/2 397/26/2 400/29/2
f 400/29/2 397/26/2 398/28/2
f 395/25/2 400/29/2 401/11/2
f 399/27/2 400/29/2 398/28/2
f 395/25/2 401/11/2 393/31/2
f 393/31/2 401/11/2 399/27/2
f 393/31/2 399/27/2 392/30/2
f 392/30/2 399/27/2 398/28/2
f 395/25/2 393/31/2 394/24/2
f 391/13/2 392/30/2 398/28/2
f 410/32/2 411/34/2 412/33/2
f 410/32/2 412/33/2 408/35/2
f 408/35/2 412/33/2 407/36/2
f 407/36/2 412/33/2 413/37/2
f 413/37/2 414/39/2 415/38/2
f 413/37/2 415/38/2 404/40/2
f 404/40/2 415/38/2 403/41/2
f 403/41/2 415/38/2 416/11/2
f 410/32/2 408/35/2 409/4/2
f 406/42/2 407/36/2 413/37/2
f 413/37/2 404/40/2 405/43/2
f 402/13/2 403/41/2 416/11/2
f 406/42/2 413/37/2 405/43/2
f 463/44/2 464/45/2 417/13/2
f 463/44/2 417/13/2 418/46/2
f 462/47/2 463/44/2 418/46/2
f 462/47/2 418/46/2 419/48/2
f 461/49/2 462/47/2 419/48/2
f 461/49/2 419/48/2 420/50/2
f 460/51/2 461/49/2 420/50/2
f 460/51/2 420/50/2 421/52/2
f 459/53/2 460/51/2 421/52/2
f 459/53/2 421/52/2 422/54/2
f 458/55/2 459/53/2 488/56/2
f 488/56/2 459/53/2 422/54/2
f 458/55/2 488/56/2 489/57/2
f 487/58/2 488/56/2 422/54/2
f 458/55/2 489/57/2 490/59/2
f 486/60/2 487/58/2 422/54/2
f 458/55/2 490/59/2 491/61/2
f 485/62/2 486/60/2 422/54/2
f 485/62/2 422/54/2 423/63/2
f 457/64/2 458/55/2 491/61/2
f 457/64/2 491/61/2 492/65/2
f 484/66/2 485/62/2 423/63/2
f 457/64/2 492/65/2 493/27/2
f 483/67/2 484/66/2 423/63/2
f 483/67/2 423/63/2 424/68/2
f 456/69/2 457/64/2 493/27/2
f 456/69/2 493/27/2 494/70/2
f 482/71/2 483/67/2 424/68/2
f 456/69/2 494/70/2 495/72/2
f 481/73/2 482/71/2 424/68/2
f 481/73/2 424/68/2 425/74/2
f 455/25/2 456/69/2 495/72/2
f 455/25/2 495/72/2 496/75/2
f 480/76/2 481/73/2 425/74/2
f 480/76/2 425/74/2 426/77/2
f 454/78/2 455/25/2 496/75/2
f 454/78/2 496/75/2 497/79/2
f 479/80/2 480/76/2 426/77/2
f 478/81/2 479/80/2 426/77/2
f 454/78/2 497/79/2 498/82/2
f 478/81/2 426/77/2 427/83/2
f 453/84/2 454/78/2 498/82/2
f 477/85/2 478/81/2 427/83/2
f 453/84/2 498/82/2 499/86/2
f 477/85/2 427/83/2 428/87/2
f 452/88/2 453/84/2 499/86/2
f 476/89/2 477/85/2 428/87/2
f 452/88/2 499/86/2 500/90/2
f 451/91/2 452/88/2 500/90/2
f 451/91/2 500/90/2 501/92/2
f 475/93/2 476/89/2 428/87/2
f 475/93/2 428/87/2 429/94/2
f 474/26/2 475/93/2 429/94/2
f 451/91/2 501/92/2 502/95/2
f 474/26/2 429/94/2 430/96/2
f 450/97/2 451/91/2 502/95/2
f 473/98/2 474/26/2 430/96/2
f 450/97/2 502/95/2 503/99/2
f 473/98/2 430/96/2 431/100/2
f 449/101/2 450/97/2 503/99/2
f 472/102/2 473/98/2 431/100/2
f 449/101/2 503/99/2 504/103/2
f 472/102/2 431/100/2 432/104/2
f 448/105/2 449/101/2 504/103/2
f 471/106/2 472/102/2 432/104/2
f 448/105/2 504/103/2 505/107/2
f 470/108/2 471/106/2 432/104/2
f 448/105/2 505/107/2 506/109/2
f 470/108/2 432/104/2 433/110/2
f 447/111/2 448/105/2 506/109/2
f 469/112/2 470/108/2 433/110/2
f 447/111/2 506/109/2 507/113/2
f 468/114/2 469/112/2 433/110/2
f 447/111/2 507/113/2 508/115/2
f 468/114/2 433/110/2 434/116/2
f 446/117/2 447/111/2 508/115/2
f 467/118/2 468/114/2 434/116/2
f 446/117/2 508/115/2 509/119/2
f 466/120/2 467/118/2 434/116/2
f 446/117/2 509/119/2 510/121/2
f 466/120/2 434/116/2 435/122/2
f 445/123/2 446/117/2 510/121/2
f 465/124/2 466/120/2 435/122/2
f 445/123/2 510/121/2 511/125/2
f 512/11/2 465/124/2 435/122/2
f 445/123/2 511/125/2 512/11/2
f 445/123/2 512/11/2 435/122/2
f 445/123/2 435/122/2 436/31/2
f 444/126/2 445/123/2 436/31/2
f 444/126/2 436/31/2 437/127/2
f 443/128/2 444/126/2 437/127/2
f 443/128/2 437/127/2 438/129/2
f 442/130/2 443/128/2 438/129/2
f 442/130/2 438/129/2 439/131/2
f 441/132/2 442/130/2 439/131/2
f 441/132/2 439/131/2 440/133/2
f 516/3/2 517/135/2 518/134/2
f 516/3/2 518/134/2 514/136/2
f 514/136/2 518/134/2 519/5/2
f 519/5/2 520/138/2 521/137/2
f 519/5/2 521/137/2 522/11/2
f 516/3/2 514/136/2 515/139/2
f 513/13/2 514/136/2 519/5/2
f 513/13/2 519/5/2 522/11/2
f 531/14/2 532/15/2 523/13/2
f 523/13/2 532/15/2 533/16/2
f 523/13/2 533/16/2 534/11/2
f 531/14/2 523/13/2 524/17/2
f 531/14/2 524/17/2 527/18/2
f 527/18/2 524/17/2 525/19/2
f 527/18/2 525/19/2 526/20/2
f 531/14/2 527/18/2 528/21/2
f 531/14/2 528/21/2 529/22/2
f 531/14/2 529/22/2 530/23/2
f 539/25/2 540/4/2 541/26/2
f 539/25/2 541/26/2 544/29/2
f 544/29/2 541/26/2 542/28/2
f 539/25/2 544/29/2 545/11/2
f 543/27/2 544/29/2 542/28/2
f 539/25/2 545/11/2 537/31/2
f 537/31/2 545/11/2 543/27/2
f 537/31/2 543/27/2 536/30/2
f 536/30/2 543/27/2 542/28/2
f 539/25/2 537/31/2 538/24/2
f 535/13/2 536/30/2 542/28/2
f 554/32/2 555/34/2 556/33/2
f 554/32/2 556/33/2 552/35/2
f 552/35/2 556/33/2 551/36/2
f 551/36/2 556/33/2 557/37/2
f 557/37/2 558/39/2 559/38/2
f 557/37/2 559/38/2 548/40/2
f 548/40/2 559/38/2 547/41/2
f 547/41/2 559/38/2 560/11/2
f 554/32/2 552/35/2 553/4/2
f 550/42/2 551/36/2 557/37/2
f 557/37/2 548/40/2 549/43/2
f 546/13/2 547/41/2 560/11/2
f 550/42/2 557/37/2 549/43/2
f 607/44/2 608/45/2 561/13/2
f 607/44/2 561/13/2 562/46/2
f 606/47/2 607/44/2 562/46/2
f 606/47/2 562/46/2 563/48/2
f 605/49/2 606/47/2 563/48/2
f 605/49/2 563/48/2 564/50/2
f 604/51/2 605/49/2 564/50/2
f 604/51/2 564/50/2 565/52/2
f 603/53/2 604/51/2 565/52/2
f 603/53/2 565/52/2 566/54/2
f 602/55/2 603/53/2 632/56/2
f 632/56/2 603/53/2 566/54/2
f 602/55/2 632/56/2 633/57/2
f 631/58/2 632/56/2 566/54/2
f 602/55/2 633/57/2 634/59/2
f 630/60/2 631/58/2 566/54/2
f 602/55/2 634/59/2 635/61/2
f 629/62/2 630/60/2 566/54/2
f 629/62/2 566/54/2 567/63/2
f 601/64/2 602/55/2 635/61/2
f 601/64/2 635/61/2 636/65/2
f 628/66/2 629/62/2 567/63/2
f 601/64/2 636/65/2 637/27/2
f 627/67/2 628/66/2 567/63/2
f 627/67/2 567/63/2 568/68/2
f 600/69/2 601/64/2 637/27/2
f 600/69/2 637/27/2 638/70/2
f 626/71/2 627/67/2 568/68/2
f 600/69/2 638/70/2 639/72/2
f 625/73/2 626/71/2 568/68/2
f 625/73/2 568/68/2 569/74/2
f 599/25/2 600/69/2 639/72/2
f 599/25/2 639/72/2 640/75/2
f 624/76/2 625/73/2 569/74/2
f 624/76/2 569/74/2 570/77/2
f 598/78/2 599/25/2 640/75/2
f 598/78/2 640/75/2 641/79/2
f 623/80/2 624/76/2 570/77/2
f 622/81/2 623/80/2 570/77/2
f 598/78/2 641/79/2 642/82/2
f 622/81/2 570/77/2 571/83/2
f 597/84/2 598/78/2 642/82/2
f 621/85/2 622/81/2 571/83/2
f 597/84/2 642/82/2 643/86/2
f 621/85/2 571/83/2 572/87/2
f 596/88/2 597/84/2 643/86/2
f 620/89/2 621/85/2 572/87/2
f 596/88/2 643/86/2 644/90/2
f 595/91/2 596/88/2 644/90/2
f 595/91/2 644/90/2 645/92/2
f 619/93/2 620/89/2 572/87/2
f 619/93/2 572/87/2 573/94/2
f 618/26/2 619/93/2 573/94/2
f 595/91/2 645/92/2 646/95/2
f 618/26/2 573/94/2 574/96/2
f 594/97/2 595/91/2 646/95/2
f 617/98/2 618/26/2 574/96/2
f 594/97/2 646/95/2 647/99/2
f 617/98/2 574/96/2 575/100/2
f 593/101/2 594/97/2 647/99/2
f 616/102/2 617/98/2 575/100/2
f 593/101/2 647/99/2 648/103/2
f 616/102/2 575/100/2 576/104/2
f 592/105/2 593/101/2 648/103/2
f 615/106/2 616/102/2 576/104/2
f 592/105/2 648/103/2 649/107/2
f 614/108/2 615/106/2 576/104/2
f 592/105/2 649/107/2 650/109/2
f 614/108/2 576/104/2 577/110/2
f 591/111/2 592/105/2 650/109/2
f 613/112/2 614/108/2 577/110/2
f 591/111/2 650/109/2 651/113/2
f 612/114/2 613/112/2 577/110/2
f 591/111/2 651/113/2 652/115/2
f 612/114/2 577/110/2 578/116/2
f 590/117/2 591/111/2 652/115/2
f 611/118/2 612/114/2 578/116/2
f 590/117/2 652/115/2 653/119/2
f 610/120/2 611/118/2 578/116/2
f 590/117/2 653/119/2 654/121/2
f 610/120/2 578/116/2 579/122/2
f 589/123/2 590/117/2 654/121/2
f 609/124/2 610/120/2 579/122/2
f 589/123/2 654/121/2 655/125/2
f 656/11/2 609/124/2 579/122/2
f 589/123/2 655/125/2 656/11/2
f 589/123/2 656/11/2 579/122/2
f 589/123/2 579/122/2 580/31/2
f 588/126/2 589/123/2 580/31/2
f 588/126/2 580/31/2 581/127/2
f 587/128/2 588/126/2 581/127/2
f 587/128/2 581/127/2 582/129/2
f 586/130/2 587/128/2 582/129/2
f 586/130/2 582/129/2 583/131/2
f 585/132/2 586/130/2 583/131/2
f 585/132/2 583/131/2 584/133/2
s 1
f 658/140/3 660/141/4 659/142/4 657/13/3
f 660/141/4 662/143/5 661/144/5 659/142/4
f 662/143/5 664/145/6 663/146/6 661/144/5
f 664/145/6 666/147/7 665/7/7 663/146/6
f 666/147/7 668/148/8 667/149/8 665/7/7
f 668/148/8 670/150/9 669/151/9 667/149/8
f 670/150/9 672/152/10 671/153/10 669/151/9
f 672/152/10 674/154/11 673/12/11 671/153/10
f 674/154/11 676/155/12 675/156/12 673/12/11
f 676/155/12 678/157/13 677/158/13 675/156/12
f 678/157/13 680/159/14 679/160/14 677/158/13
f 680/159/14 682/161/15 681/1/15 679/160/14
f 682/161/15 684/162/16 683/163/16 681/1/15
f 684/162/16 686/164/17 685/165/17 683/163/16
f 686/164/17 688/166/18 687/167/18 685/165/17
f 688/166/18 690/168/19 689/3/19 687/167/18
f 690/168/19 692/169/20 691/170/20 689/3/19
f 692/169/20 694/171/21 693/172/21 691/170/20
f 694/171/21 696/173/22 695/174/22 693/172/21
f 696/173/22 698/175/23 697/2/23 695/174/22
f 698/175/23 700/176/24 699/177/24 697/2/23
f 700/176/24 702/178/25 701/179/25 699/177/24
f 702/178/25 704/180/26 703/181/26 701/179/25
f 704/180/26 706/182/27 705/4/27 703/181/26
f 706/182/27 708/183/28 707/184/28 705/4/27
f 708/183/28 710/185/29 709/186/29 707/184/28
f 710/185/29 712/187/30 711/188/30 709/186/29
f 712/187/30 714/189/31 713/6/31 711/188/30
f 714/189/31 716/190/32 715/191/32 713/6/31
f 716/190/32 718/192/33 717/193/33 715/191/32
f 718/192/33 720/194/34 719/195/34 717/193/33
f 720/194/34 722/196/35 721/5/35 719/195/34
f 722/196/35 724/197/36 723/198/36 721/5/35
f 724/197/36 726/199/37 725/200/37 723/198/36
f 726/199/37 728/201/38 727/202/38 725/200/37
f 728/201/38 730/203/39 729/8/39 727/202/38
f 730/203/39 732/204/40 731/205/40 729/8/39
f 732/204/40 734/206/41 733/207/41 731/205/40
f 734/206/41 736/208/42 735/209/42 733/207/41
f 736/208/42 738/210/43 737/10/43 735/209/42
f 738/210/43 740/211/44 739/212/44 737/10/43
f 740/211/44 742/213/45 741/214/45 739/212/44
f 742/213/45 744/215/46 743/216/46 741/214/45
f 744/215/46 746/217/47 745/9/47 743/216/46
f 746/217/47 748/218/48 747/219/48 745/9/47
f 748/218/48 750/220/49 749/221/49 747/219/48
f 750/220/49 752/222/50 751/223/50 749/221/49
f 752/222/50 658/224/3 657/11/3 751/223/50
f 754/140/51 756/141/52 755/142/52 753/13/51
f 756/141/52 758/143/53 757/144/53 755/142/52
f 758/143/53 760/145/54 759/146/54 757/144/53
f 760/145/54 762/147/55 761/7/55 759/146/54
f 762/147/55 764/148/56 763/149/56 761/7/55
f 764/148/56 766/150/57 765/151/57 763/149/56
f 766/150/57 768/152/58 767/153/58 765/151/57
f 768/152/58 770/154/59 769/12/59 767/153/58
f 770/154/59 772/155/60 771/156/60 769/12/59
f 772/155/60 774/157/39 773/158/39 771/156/60
f 774/157/39 776/159/61 775/160/61 773/158/39
f 776/159/61 778/161/62 777/1/62 775/160/61
f 778/161/62 780/162/63 779/163/63 777/1/62
f 780/162/63 782/164/64 781/165/64 779/163/63
f 782/164/64 784/166/65 783/167/65 781/165/64
f 784/166/65 786/168/66 785/3/66 783/167/65
f 786/168/66 788/169/67 787/170/67 785/3/66
f 788/169/67 790/171/68 789/172/68 787/170/67
f 790/171/68 792/173/69 791/174/69 789/172/68
f 792/173/69 794/175/70 793/2/70 791/174/69
f 794/175/70 796/176/71 795/177/71 793/2/70
f 796/176/71 798/178/72 797/179/72 795/177/71
f 798/178/72 800/180/73 799/181/73 797/179/72
f 800/180/73 802/182/74 801/4/74 799/181/73
f 802/182/74 804/183/75 803/184/75 801/4/74
f 804/183/75 806/185/76 805/186/76 803/184/75
f 806/185/76 808/187/77 807/188/77 805/186/76
f 808/187/77 810/189/78 809/6/78 807/188/77
f 810/189/78 812/190/79 811/191/79 809/6/78
f 812/190/79 814/192/80 813/193/80 811/191/79
f 814/192/80 816/194/81 815/195/81 813/193/80
f 816/194/81 818/196/82 817/5/82 815/195/81
f 818/196/82 820/197/83 819/198/83 817/5/82
f 820/197/83 822/199/84 821/200/84 819/198/83
f 822/199/84 824/201/85 823/202/85 821/200/84
f 824/201/85 826/203/86 825/8/86 823/202/85
f 826/203/86 828/204/87 827/205/87 825/8/86
f 828/204/87 830/206/88 829/207/88 827/205/87
f 830/206/88 832/208/89 831/209/89 829/207/88
f 832/208/89 834/210/90 833/10/90 831/209/89
f 834/210/90 836/211/91 835/212/91 833/10/90
f 836/211/91 838/213/92 837/214/92 835/212/91
f 838/213/92 840/215/93 839/216/93 837/214/92
f 840/215/93 842/217/94 841/9/94 839/216/93
f 842/217/94 844/218/95 843/219/95 841/9/94
f 844/218/95 846/220/96 845/221/96 843/219/95
f 846/220/96 848/222/97 847/223/97 845/221/96
f 848/222/97 754/224/51 753/11/51 847/223/97
f 850/140/98 852/225/98 851/226/98 849/13/98
f 852/225/98 854/227/99 853/228/99 851/226/98
f 854/227/99 856/229/99 855/31/99 853/228/99
f 856/229/99 858/230/100 857/231/100 855/31/99
f 858/230/100 860/168/100 859/3/100 857/231/100
f 860/168/100 862/232/101 861/25/101 859/3/100
f 862/232/101 864/233/101 863/234/101 861/25/101
f 864/233/101 866/235/98 865/236/98 863/234/101
f 866/235/98 868/237/102 867/26/102 865/236/98
f 868/237/102 870/196/103 869/5/103 867/26/102
f 870/196/103 872/238/104 871/239/104 869/5/103
f 872/238/104 874/240/105 873/27/105 871/239/104
f 874/240/105 876/241/106 875/242/106 873/27/105
f 876/241/106 878/243/101 877/244/101 875/242/106
f 878/243/101 850/224/98 849/11/98 877/244/101
f 880/140/107 882/150/107 881/151/107 879/13/107
f 882/150/107 884/161/108 883/1/108 881/151/107
f 884/161/108 886/171/108 885/172/108 883/1/108
f 886/171/108 888/182/109 887/4/109 885/172/108
f 888/182/109 890/192/110 889/193/110 887/4/109
f 890/192/110 892/203/111 891/8/111 889/193/110
f 892/203/111 894/213/112 893/214/112 891/8/111
f 894/213/112 880/224/107 879/11/107 893/214/112
f 896/140/113 898/168/114 897/3/114 895/13/113
f 898/168/114 900/196/115 899/5/115 897/3/114
f 900/196/115 896/224/113 895/11/113 899/5/115
f 902/140/101 904/147/106 903/7/106 901/13/101
f 904/147/106 906/154/106 905/12/106 903/7/106
f 906/154/106 908/161/101 907/1/101 905/12/106
f 908/161/101 910/168/101 909/3/101 907/1/101
f 910/168/101 912/175/106 911/2/106 909/3/101
f 912/175/106 914/182/106 913/4/106 911/2/106
f 914/182/106 916/189/101 915/6/101 913/4/106
f 916/189/101 918/196/98 917/5/98 915/6/101
f 918/196/98 920/203/102 919/8/102 917/5/98
f 920/203/102 922/210/106 921/10/106 919/8/102
f 922/210/106 924/217/101 923/9/101 921/10/106
f 924/217/101 902/224/101 901/11/101 923/9/101
f 926/140/116 928/245/117 927/30/117 925/13/116
f 928/245/117 930/229/101 929/31/101 927/30/117
f 930/229/101 932/246/98 931/24/98 929/31/101
f 932/246/98 934/232/102 933/25/102 931/24/98
f 934/232/102 936/182/118 935/4/118 933/25/102
f 936/182/118 938/237/119 937/26/119 935/4/118
f 938/237/119 940/247/102 939/28/102 937/26/119
f 940/247/102 942/240/106 941/27/106 939/28/102
f 942/240/106 944/248/101 943/29/101 941/27/106
f 944/248/101 926/224/116 925/11/116 943/29/101
f 946/140/120 948/141/4 947/142/4 945/13/120
f 948/141/4 950/143/5 949/144/5 947/142/4
f 950/143/5 952/145/6 951/146/6 949/144/5
f 952/145/6 954/147/7 953/7/7 951/146/6
f 954/147/7 956/148/8 955/149/8 953/7/7
f 956/148/8 958/150/9 957/151/9 955/149/8
f 958/150/9 960/152/10 959/153/10 957/151/9
f 960/152/10 962/154/11 961/12/11 959/153/10
f 962/154/11 964/155/12 963/156/12 961/12/11
f 964/155/12 966/157/13 965/158/13 963/156/12
f 966/157/13 968/159/14 967/160/14 965/158/13
f 968/159/14 970/161/15 969/1/15 967/160/14
f 970/161/15 972/162/16 971/163/16 969/1/15
f 972/162/16 974/164/17 973/165/17 971/163/16
f 974/164/17 976/166/18 975/167/18 973/165/17
f 976/166/18 978/168/19 977/3/19 975/167/18
f 978/168/19 980/169/20 979/170/20 977/3/19
f 980/169/20 982/171/21 981/172/21 979/170/20
f 982/171/21 984/173/22 983/174/22 981/172/21
f 984/173/22 986/175/23 985/2/23 983/174/22
f 986/175/23 988/176/24 987/177/24 985/2/23
f 988/176/24 990/178/25 989/179/25 987/177/24
f 990/178/25 992/180/26 991/181/26 989/179/25
f 992/180/26 994/182/27 993/4/27 991/181/26
f 994/182/27 996/183/28 995/184/28 993/4/27
f 996/183/28 998/185/29 997/186/29 995/184/28
f 998/185/29 1000/187/30 999/188/30 997/186/29
f 1000/187/30 1002/189/31 1001/6/31 999/188/30
f 1002/189/31 1004/190/32 1003/191/32 1001/6/31
f 1004/190/32 1006/192/33 1005/193/33 1003/191/32
f 1006/192/33 1008/194/34 1007/195/34 1005/193/33
f 1008/194/34 1010/196/35 1009/5/35 1007/195/34
f 1010/196/35 1012/197/36 1011/198/36 1009/5/35
f 1012/197/36 1014/199/37 1013/200/37 1011/198/36
f 1014/199/37 1016/201/38 1015/202/38 1013/200/37
f 1016/201/38 1018/203/121 1017/8/121 1015/202/38
f 1018/203/121 1020/204/40 1019/205/40 1017/8/121
f 1020/204/40 1022/206/41 1021/207/41 1019/205/40
f 1022/206/41 1024/208/42 1023/209/42 1021/207/41
f 1024/208/42 1026/210/43 1025/10/43 1023/209/42
f 1026/210/43 1028/211/44 1027/212/44 1025/10/43
f 1028/211/44 1030/213/45 1029/214/45 1027/212/44
f 1030/213/45 1032/215/46 1031/216/46 1029/214/45
f 1032/215/46 1034/217/47 1033/9/47 1031/216/46
f 1034/217/47 1036/218/48 1035/219/48 1033/9/47
f 1036/218/48 1038/220/49 1037/221/49 1035/219/48
f 1038/220/49 1040/222/50 1039/223/50 1037/221/49
f 1040/222/50 946/224/120 945/11/120 1039/223/50
f 1042/140/51 1044/141/52 1043/142/52 1041/13/51
f 1044/141/52 1046/143/53 1045/144/53 1043/142/52
f 1046/143/53 1048/145/54 1047/146/54 1045/144/53
f 1048/145/54 1050/147/55 1049/7/55 1047/146/54
f 1050/147/55 1052/148/56 1051/149/56 1049/7/55
f 1052/148/56 1054/150/57 1053/151/57 1051/149/56
f 1054/150/57 1056/152/58 1055/153/58 1053/151/57
f 1056/152/58 1058/154/59 1057/12/59 1055/153/58
f 1058/154/59 1060/155/60 1059/156/60 1057/12/59
f 1060/155/60 1062/157/39 1061/158/39 1059/156/60
f 1062/157/39 1064/159/61 1063/160/61 1061/158/39
f 1064/159/61 1066/161/62 1065/1/62 1063/160/61
f 1066/161/62 1068/162/63 1067/163/63 1065/1/62
f 1068/162/63 1070/164/64 1069/165/64 1067/163/63
f 1070/164/64 1072/166/65 1071/167/65 1069/165/64
f 1072/166/65 1074/168/66 1073/3/66 1071/167/65
f 1074/168/66 1076/169/67 1075/170/67 1073/3/66
f 1076/169/67 1078/171/68 1077/172/68 1075/170/67
f 1078/171/68 1080/173/69 1079/174/69 1077/172/68
f 1080/173/69 1082/175/70 1081/2/70 1079/174/69
f 1082/175/70 1084/176/71 1083/177/71 1081/2/70
f 1084/176/71 1086/178/72 1085/179/72 1083/177/71
f 1086/178/72 1088/180/73 1087/181/73 1085/179/72
f 1088/180/73 1090/182/74 1089/4/74 1087/181/73
f 1090/182/74 1092/183/75 1091/184/75 1089/4/74
f 1092/183/75 1094/185/76 1093/186/76 1091/184/75
f 1094/185/76 1096/187/77 1095/188/77 1093/186/76
f 1096/187/77 1098/189/78 1097/6/78 1095/188/77
f 1098/189/78 1100/190/79 1099/191/79 1097/6/78
f 1100/190/79 1102/192/80 1101/193/80 1099/191/79
f 1102/192/80 1104/194/122 1103/195/122 1101/193/80
f 1104/194/122 1106/196/82 1105/5/82 1103/195/122
f 1106/196/82 1108/197/83 1107/198/83 1105/5/82
f 1108/197/83 1110/199/84 1109/200/84 1107/198/83
f 1110/199/84 1112/201/85 1111/202/85 1109/200/84
f 1112/201/85 1114/203/86 1113/8/86 1111/202/85
f 1114/203/86 1116/204/87 1115/205/87 1113/8/86
f 1116/204/87 1118/206/88 1117/207/88 1115/205/87
f 1118/206/88 1120/208/89 1119/209/89 1117/207/88
f 1120/208/89 1122/210/90 1121/10/90 1119/209/89
f 1122/210/90 1124/211/91 1123/212/91 1121/10/90
f 1124/211/91 1126/213/92 1125/214/92 1123/212/91
f 1126/213/92 1128/215/93 1127/216/93 1125/214/92
f 1128/215/93 1130/217/94 1129/9/94 1127/216/93
f 1130/217/94 1132/218/95 1131/219/95 1129/9/94
f 1132/218/95 1134/220/96 1133/221/96 1131/219/95
f 1134/220/96 1136/222/97 1135/223/97 1133/221/96
f 1136/222/97 1042/224/51 1041/11/51 1135/223/97
f 1138/140/98 1140/225/98 1139/226/98 1137/13/98
f 1140/225/98 1142/227/99 1141/228/99 1139/226/98
f 1142/227/99 1144/229/99 1143/31/99 1141/228/99
f 1144/229/99 1146/230/100 1145/231/100 1143/31/99
f 1146/230/100 1148/168/100 1147/3/100 1145/231/100
f 1148/168/100 1150/232/101 1149/25/101 1147/3/100
f 1150/232/101 1152/233/101 1151/234/101 1149/25/101
f 1152/233/101 1154/235/98 1153/236/98 1151/234/101
f 1154/235/98 1156/237/102 1155/26/102 1153/236/98
f 1156/237/102 1158/196/103 1157/5/103 1155/26/102
f 1158/196/103 1160/238/104 1159/239/104 1157/5/103
f 1160/238/104 1162/240/105 1161/27/105 1159/239/104
f 1162/240/105 1164/241/106 1163/242/106 1161/27/105
f 1164/241/106 1166/243/101 1165/244/101 1163/242/106
f 1166/243/101 1138/224/98 1137/11/98 1165/244/101
f 1168/140/107 1170/150/107 1169/151/107 1167/13/107
f 1170/150/107 1172/161/108 1171/1/108 1169/151/107
f 1172/161/108 1174/171/108 1173/172/108 1171/1/108
f 1174/171/108 1176/182/109 1175/4/109 1173/172/108
f 1176/182/109 1178/192/110 1177/193/110 1175/4/109
f 1178/192/110 1180/203/111 1179/8/111 1177/193/110
f 1180/203/111 1182/213/112 1181/214/112 1179/8/111
f 1182/213/112 1168/224/107 1167/11/107 1181/214/112
f 1184/140/113 1186/168/114 1185/3/114 1183/13/113
f 1186/168/114 1188/196/115 1187/5/115 1185/3/114
f 1188/196/115 1184/224/113 1183/11/113 1187/5/115
f 1190/140/123 1192/249/124 1191/17/124 1189/13/123
f 1192/249/124 1194/250/101 1193/19/101 1191/17/124
f 1194/250/101 1196/251/98 1195/20/98 1193/19/101
f 1196/251/98 1198/252/102 1197/18/102 1195/20/98
f 1198/252/102 1200/253/106 1199/21/106 1197/18/102
f 1200/253/106 1202/254/125 1201/22/125 1199/21/106
f 1202/254/125 1204/255/126 1203/23/126 1201/22/125
f 1204/255/126 1206/256/127 1205/14/127 1203/23/126
f 1206/256/127 1208/257/128 1207/15/128 1205/14/127
f 1208/257/128 1210/258/129 1209/16/129 1207/15/128
f 1210/258/129 1190/224/123 1189/11/123 1209/16/129
f 1212/140/101 1214/147/106 1213/7/106 1211/13/101
f 1214/147/106 1216/154/106 1215/12/106 1213/7/106
f 1216/154/106 1218/161/101 1217/1/101 1215/12/106
f 1218/161/101 1220/168/101 1219/3/101 1217/1/101
f 1220/168/101 1222/175/106 1221/2/106 1219/3/101
f 1222/175/106 1224/182/106 1223/4/106 1221/2/106
f 1224/182/106 1226/189/101 1225/6/101 1223/4/106
f 1226/189/101 1228/196/98 1227/5/98 1225/6/101
f 1228/196/98 1230/203/102 1229/8/102 1227/5/98
f 1230/203/102 1232/210/106 1231/10/106 1229/8/102
f 1232/210/106 1234/217/101 1233/9/101 1231/10/106
f 1234/217/101 1212/224/101 1211/11/101 1233/9/101
f 1236/140/130 1238/259/131 1237/260/131 1235/13/130
f 1238/259/131 1240/261/132 1239/262/132 1237/260/131
f 1240/261/132 1242/263/133 1241/264/133 1239/262/132
f 1242/263/133 1244/265/134 1243/266/134 1241/264/133
f 1244/265/134 1246/267/135 1245/268/135 1243/266/134
f 1246/267/135 1248/269/136 1247/270/136 1245/268/135
f 1248/269/136 1250/271/137 1249/272/137 1247/270/136
f 1250/271/137 1252/273/138 1251/274/138 1249/272/137
f 1252/273/138 1254/275/139 1253/276/139 1251/274/138
f 1254/275/139 1256/277/140 1255/278/140 1253/276/139
f 1256/277/140 1258/279/141 1257/280/141 1255/278/140
f 1258/279/141 1260/281/142 1259/282/142 1257/280/141
f 1260/281/142 1236/224/130 1235/11/130 1259/282/142
f 1262/140/130 1264/259/131 1263/260/131 1261/13/130
f 1264/259/131 1266/261/132 1265/262/132 1263/260/131
f 1266/261/132 1268/263/133 1267/264/133 1265/262/132
f 1268/263/133 1270/265/134 1269/266/134 1267/264/133
f 1270/265/134 1272/267/135 1271/268/135 1269/266/134
f 1272/267/135 1274/269/136 1273/270/136 1271/268/135
f 1274/269/136 1276/271/137 1275/272/137 1273/270/136
f 1276/271/137 1278/273/138 1277/274/138 1275/272/137
f 1278/273/138 1280/275/139 1279/276/139 1277/274/138
f 1280/275/139 1282/277/140 1281/278/140 1279/276/139
f 1282/277/140 1284/279/141 1283/280/141 1281/278/140
f 1284/279/141 1286/281/142 1285/282/142 1283/280/141
f 1286/281/142 1262/224/130 1261/11/130 1285/282/142
f 1288/140/130 1290/259/131 1289/260/131 1287/13/130
f 1290/259/131 1292/261/132 1291/262/132 1289/260/131
f 1292/261/132 1294/263/133 1293/264/133 1291/262/132
f 1294/263/133 1296/265/134 1295/266/134 1293/264/133
f 1296/265/134 1298/267/135 1297/268/135 1295/266/134
f 1298/267/135 1300/269/136 1299/270/136 1297/268/135
f 1300/269/136 1302/271/137 1301/272/137 1299/270/136
f 1302/271/137 1304/273/138 1303/274/138 1301/272/137
f 1304/273/138 1306/275/139 1305/276/139 1303/274/138
f 1306/275/139 1308/277/140 1307/278/140 1305/276/139
f 1308/277/140 1310/279/141 1309/280/141 1307/278/140
f 1310/279/141 1312/281/142 1311/282/142 1309/280/141
f 1312/281/142 1288/224/130 1287/11/130 1311/282/142
